<?xml version="1.0" encoding="utf-8" ?>
<svg baseProfile="full" height="200mm" version="1.1" viewBox="0,0,200,200" width="200mm" xmlns="http://www.w3.org/2000/svg" xmlns:ev="http://www.w3.org/2001/xml-events" xmlns:xlink="http://www.w3.org/1999/xlink"><defs /><rect fill="#1a1a1a" height="200" width="200" x="0" y="0" /><text alignment-baseline="middle" fill="#e1ed5e" style="dominant-baseline: central; font-size:9.0px; font-family:Arial;" text-anchor="middle" x="100.0" y="100.0">2021</text><line stroke="#e1ed5e" stroke-width="0.3" x1="100.0" x2="100.0" y1="15.0" y2="10.0" /><path d="M 100.0 14.0 a86.0,86.0 0 0,1 42.46469731375804,11.215312516191453" fill="none" id="id49" stroke="none" /><text fill="#e1ed5e" style="font-size:6.75px; font-family:Arial;" text-anchor="middle"><textPath startOffset="22.20632615414155" xlink:href="#id49">January</textPath></text><path d="M 105.36241919743992 79.69619591428918 l 8.409615285824586 -31.841445980407105 a53.933255402081926,53.933255402081926 0 0,0 0.8955542857020318,0.2447888160414959 l -8.956467460750329 31.691970623539316" fill="#bcff1f" stroke="none" /><path d="M 106.74666289553966 80.11325718540242 l 10.618241822024121 -31.29876911404616 a54.05086999528684,54.05086999528684 0 0,0 0.878501648829897,0.30649197544469936 l -11.155425474917292 31.111356285429252" fill="#bbff1f" stroke="none" /><path d="M 107.08798089147638 80.2323363322302 l 11.596749028857905 -32.34216315645988 a55.358406623086985,55.358406623086985 0 0,0 0.8942166639818842,0.3293475439493904 l -12.151748018612366 32.13775234470416" fill="#a8ff21" stroke="none" /><line stroke="#e1ed5e" stroke-width="0.3" x1="143.23703022742887" x2="145.7803849466894" y1="26.81831364943548" y2="22.513508569990506" /><path d="M 143.74570117128098 25.957352633546492 a86.0,86.0 0 0,1 28.547481713284135,27.462654790039103" fill="none" id="id50" stroke="none" /><text fill="#e1ed5e" style="font-size:6.75px; font-family:Arial;" text-anchor="middle"><textPath startOffset="19.985693538727396" xlink:href="#id50">February</textPath></text><path d="M 111.60114157652 82.49532879139004 l 17.68292528152474 -26.681321921455087 a53.00904225353059,53.00904225353059 0 0,0 0.7562504863410967,0.5106237042069379 l -18.139580462272377 26.372986304949478" fill="#c9ff1d" stroke="none" /><path d="M 112.48926042617603 83.11751280151076 l 19.361566527746234 -26.172198184152638 a53.55540225828742,53.55540225828742 0 0,0 0.7363965899570227,0.5546386444532664 l -19.80920927146164 25.83504295019352" fill="#c2ff1e" stroke="none" /><path d="M 113.06298171725822 83.55741782278167 l 20.629299979369797 -25.96642692388843 a54.16358461976728,54.16358461976728 0 0,0 0.7250095027705323,0.5862405968757841 l -21.073212880704823 25.607480229748514" fill="#b9ff1f" stroke="none" /><path d="M 114.16331599549186 84.49514656593476 l 36.67391520931673 -40.147637767510325 a75.37654710526749,75.37654710526749 0 0,0 0.950434067630533,0.8833248838159601 l -37.35955716074211 39.510408297619726" fill="#40ffc4" stroke="none" /><path d="M 114.68862486808459 84.99185889309783 l 24.487809413370947 -25.0204836991472 a56.009676011138254,56.009676011138254 0 0,0 0.6832225637276543,0.680288588911592 l -24.914867777265922 24.595259259585486" fill="#9fff22" stroke="none" /><path d="M 115.19652480421416 85.50635884689758 l 40.3021364424997 -38.43804493636454 a76.69331647836967,76.69331647836967 0 0,0 0.9029092390435314,0.963160622685539 l -40.9578130035137 37.73861489680095" fill="#42ffd5" stroke="none" /><path d="M 115.68641384162765 86.03803664274999 l 39.94791898073141 -35.55633471349821 a74.47980150626401,74.47980150626401 0 0,0 0.8441332741713177,0.9649902555688902 l -40.55404411848057 34.86342890172637" fill="#3effb8" stroke="none" /><path d="M 116.38621287248628 86.86637796730983 l 25.0305561521348 -20.06210137317019 a53.078289430587326,53.078289430587326 0 0,0 0.5652734685811135,0.7178399006785168 l -25.372183701309876 19.628269078538633" fill="#c8ff1d" stroke="none" /><path d="M 117.65298651832404 88.62581576622439 l 16.52104131245971 -10.644848531815178 a40.65343751900131,40.65343751900131 0 0,0 0.3739582022100159,0.5915120696397331 l -16.701827110915684 10.358888814461238" fill="#ff740a" stroke="none" /><line stroke="#e1ed5e" stroke-width="0.3" x1="172.23445277983987" x2="176.4835382374775" y1="55.19839476539836" y2="52.563006222186495" /><path d="M 173.08426987136738 54.67131705675599 a86.0,86.0 0 0,1 12.851231095245387,41.99856678651699" fill="none" id="id51" stroke="none" /><text fill="#e1ed5e" style="font-size:6.75px; font-family:Arial;" text-anchor="middle"><textPath startOffset="22.20632615414155" xlink:href="#id51">March</textPath></text><path d="M 118.3937258080291 89.86733742301442 l 28.129210939008637 -15.495707937399494 a53.11494157759638,53.11494157759638 0 0,0 0.4342573942551293,0.8046129992866126 l -28.39177643248223 15.009213954780423" fill="#c8ff1d" stroke="none" /><path d="M 119.85752413597 93.16781622104841 l 51.31585756745354 -17.655744355373532 a75.26824620922886,75.26824620922886 0 0,0 0.41097432397156625,1.2287609188756776 l -51.612169185196876 16.76981033357554" fill="#40ffc3" stroke="none" /><path d="M 120.28053869075195 94.5502522615342 l 30.98674029072555 -8.326697845497282 a53.086008958034704,53.086008958034704 0 0,0 0.229543063797882,0.8845230613220043 l -31.125479686393735 7.792078358626428" fill="#c8ff1d" stroke="none" /><path d="M 120.45610955862082 95.25157060432595 l 30.958977453537944 -7.186435826378178 a52.78211989240684,52.78211989240684 0 0,0 0.19782138578399172,0.8867944835939164 l -31.078093226323972 6.652463173234298" fill="#cdff1d" stroke="none" /><path d="M 120.53481517161879 95.60439243477599 l 52.306450236967834 -11.196527772472985 a74.49137286097779,74.49137286097779 0 0,0 0.2576007593058428,1.256152787422876 l -52.491430292188674 10.294499328886697" fill="#3effb9" stroke="none" /><path d="M 120.6074358757038 95.95851677861258 l 31.304054993827787 -6.139279713499222 a52.90038580420584,52.90038580420584 0 0,0 0.16755385079313845,0.8950793708058367 l -31.405094568530785 5.599522265230822" fill="#cbff1d" stroke="none" /><path d="M 120.94382443527127 98.46500227214037 l 21.649905781524247 -1.5867472669914227 a42.70797519894893,42.70797519894893 0 0,0 0.04742498766845567,0.7336435684346191 l -21.67401136019712 1.2138446343037683" fill="#ff970d" stroke="none" /><line stroke="#e1ed5e" stroke-width="0.3" x1="184.98032266829074" x2="189.97916517819016" y1="98.17113171792111" y2="98.06355123074" /><path d="M 185.9800911702706 98.14961562048488 a86.0,86.0 0 0,1 -9.607161424134198,41.387399972396054" fill="none" id="id52" stroke="none" /><text fill="#e1ed5e" style="font-size:6.75px; font-family:Arial;" text-anchor="middle"><textPath startOffset="21.466115282336823" xlink:href="#id52">April</textPath></text><path d="M 120.89721153311464 102.0752229133903 l 30.928195853137808 3.07136196628662 a52.08032437182731,52.08032437182731 0 0,0 -0.0962684918663339,0.8913266731746607 l -30.87074505977042 -3.603284961346072" fill="#d7ff1c" stroke="none" /><path d="M 120.8583938346157 102.4346265915055 l 30.956165654650295 3.613255395954111 a52.166324881104316,52.166324881104316 0 0,0 -0.11178123275182329,0.8910064075679925 l -30.889382912651623 -4.145579557809499" fill="#d6ff1c" stroke="none" /><path d="M 120.81339534386255 102.79330883721812 l 31.011298079145277 4.16194145870704 a52.28933309067651,52.28933309067651 0 0,0 -0.12740158806159493,0.8910464101725336 l -30.935062440067078 -4.695133340859983" fill="#d4ff1c" stroke="none" /><path d="M 120.32669344350535 105.2749913415812 l 60.606996470801235 15.728154828097146 a83.61455801575468,83.61455801575468 0 0,0 -0.3735258349185723,1.3900285867532904 l -60.32728255954088 -16.769074348025985" fill="#4cd6ff" stroke="none" /><path d="M 119.9155931802556 106.66101706037122 l 25.587359688718067 8.558009689883539 a47.98059498402463,47.98059498402463 0 0,0 -0.26871228128192975,0.7810036708360101 l -25.43625657649291 -8.997186063808849" fill="#ffea16" stroke="none" /><path d="M 119.79798401119884 107.00284435728193 l 51.142668363547514 18.08993008396326 a75.24774739826975,75.24774739826975 0 0,0 -0.44244148655682786,1.2174089499470626 l -50.82370261598546 -18.967586830916453" fill="#40ffc2" stroke="none" /><path d="M 119.67450827220406 107.3425965602758 l 27.698075796204474 10.337020537117887 a50.56412346742391,50.56412346742391 0 0,0 -0.3113443053180057,0.812821735540071 l -27.516037211292964 -10.812265839491102" fill="#edff1a" stroke="none" /><path d="M 119.41010516605496 108.01547362559984 l 25.075166006832944 10.354881133606831 a48.12908980340765,48.12908980340765 0 0,0 -0.3228064321389151,0.7630190500978717 l -24.893208593501722 -10.784974709370866" fill="#ffec16" stroke="none" /><path d="M 118.81262510543309 109.33194174019688 l 26.334429449354793 13.063108418172373 a50.39637691906897,50.39637691906897 0 0,0 -0.39218299781270566,0.7738142610951112 l -26.10566778175582 -13.514476890970178" fill="#efff19" stroke="none" /><line stroke="#e1ed5e" stroke-width="0.3" x1="174.80103733775053" x2="179.2010983576182" y1="140.37084112569926" y2="142.7455964860345" /><path d="M 175.68104954172406 140.8457921977663 a86.0,86.0 0 0,1 -30.038265399797805,32.042727171017184" fill="none" id="id53" stroke="none" /><text fill="#e1ed5e" style="font-size:6.75px; font-family:Arial;" text-anchor="middle"><textPath startOffset="22.206326154141568" xlink:href="#id53">May</textPath></text><line stroke="#e1ed5e" stroke-width="0.3" x1="143.8653032363475" x2="146.44561519142675" y1="172.8068346515853" y2="177.08958963109032" /><path d="M 144.38136562736335 173.6633856474863 a86.0,86.0 0 0,1 -40.68145358897372,12.25698825130547" fill="none" id="id54" stroke="none" /><text fill="#e1ed5e" style="font-size:6.75px; font-family:Arial;" text-anchor="middle"><textPath startOffset="21.466115282336833" xlink:href="#id54">June</textPath></text><line stroke="#e1ed5e" stroke-width="0.3" x1="102.19456741930631" x2="102.32365962044197" y1="184.97166512339345" y2="189.96999836594603" /><path d="M 102.22038585953345 185.97133177190398 a86.0,86.0 0 0,1 -42.740103519485714,-10.115201625700543" fill="none" id="id55" stroke="none" /><text fill="#e1ed5e" style="font-size:6.75px; font-family:Arial;" text-anchor="middle"><textPath startOffset="22.20632615414155" xlink:href="#id55">July</textPath></text><path d="M 94.11515582081647 120.15858648285463 l -8.326218502308794 28.521536109257358 a50.71201670334514,50.71201670334514 0 0,0 -0.8358427656015246,-0.25183256875298227 l 8.815936242350565 -28.37398817139865" fill="#ebff1a" stroke="none" /><path d="M 93.76903079525671 120.05430185196036 l -8.793643675466633 28.302239804386165 a50.63688490776409,50.63688490776409 0 0,0 -0.8301523154680897,-0.2657885560668049 l 9.279517336025663 -28.146678401659656" fill="#ecff1a" stroke="none" /><path d="M 93.42475214034765 119.94407469862007 l -8.960623991892497 27.179409515065792 a49.61840463603323,49.61840463603323 0 0,0 -0.8088515100134309,-0.274406348062344 l 9.427145234843154 -27.021140180105327" fill="#fbff18" stroke="none" /><path d="M 90.7491055286396 118.85261126421891 l -13.435828065187797 27.381183982808846 a51.50001167373081,51.50001167373081 0 0,0 -0.7924775012694443,-0.3973646706995595 l 13.905159474140001 -27.145851471199983" fill="#dfff1b" stroke="none" /><path d="M 90.10565033884886 118.52300852407294 l -13.885443251018994 25.994652757120413 a50.47079072981478,50.47079072981478 0 0,0 -0.7627751259330904,-0.4159258166129047 l 14.330841188820724 -25.75178628874774" fill="#eeff19" stroke="none" /><line stroke="#e1ed5e" stroke-width="0.3" x1="58.666819895761336" x2="56.23545636021788" y1="174.27360380694188" y2="178.64263932499728" /><path d="M 58.180547188652646 175.14741091055294 a86.0,86.0 0 0,1 -31.652253787137756,-30.449443065178592" fill="none" id="id56" stroke="none" /><text fill="#e1ed5e" style="font-size:6.75px; font-family:Arial;" text-anchor="middle"><textPath startOffset="22.20632615414155" xlink:href="#id56">August</textPath></text><path d="M 89.7882731507175 118.34994917583269 l -14.19330150386979 25.504634532168293 a50.187945974309734,50.187945974309734 0 0,0 -0.751268700129338,-0.4265899748421083 l 14.630218970920335 -25.256541391531552" fill="#f3ff19" stroke="none" /><path d="M 89.4739219176387 118.17145234162733 l -14.225866333220644 24.558496533068656 a49.38124424501868,49.38124424501868 0 0,0 -0.7318585608402198,-0.4323949377945286 l 14.646492765089246 -24.30998302298038" fill="#ffff18" stroke="none" /><path d="M 88.54995079064634 117.60387380957326 l -8.304798368289962 12.768209098166738 a36.23144246328822,36.23144246328822 0 0,0 -0.5198785864445744,-0.34454717898260445 l 8.5233516534745 -12.623363898092814" fill="#ff2803" stroke="none" /><path d="M 87.95078237400918 117.19931262002967 l -33.741092786627505 48.16276218024689 a79.8057225384301,79.8057225384301 0 0,0 -1.1183163440159114,-0.7978890183148343 l 34.565136458492304 -47.57482890008784" fill="#47fffb" stroke="none" /><path d="M 87.36589467227662 116.77436683061367 l -17.755090831807944 23.573525706650113 a50.51193596983845,50.51193596983845 0 0,0 -0.6900201570439589,-0.5290780324523605 l 18.158239717345392 -23.264408332370387" fill="#eeff19" stroke="none" /><path d="M 87.07902340077011 116.55440617244103 l -7.986732484506859 10.232633154605045 a33.98054995197813,33.98054995197813 0 0,0 -0.45799714558337845,-0.36386063179306993 l 8.161687122807596 -10.093638608806845" fill="#ff0000" stroke="none" /><path d="M 86.51685102203217 116.09983520530335 l -18.836535300934315 22.49215778001655 a50.337897398152165,50.337897398152165 0 0,0 -0.6595092100358867,-0.5620480565393444 l 19.22090998754726 -22.164585333254255" fill="#f0ff19" stroke="none" /><path d="M 86.24171649860922 115.8653595955263 l -19.86086436578614 22.902548490828742 a51.314693808958644,51.314693808958644 0 0,0 -0.6623447697702486,-0.5844422498163672 l 20.252151488462975 -22.557283099240088" fill="#e2ff1b" stroke="none" /><path d="M 85.70375840098266 115.38237550388516 l -19.883602065976834 21.39422667351297 a50.20737177624464,50.20737177624464 0 0,0 -0.6279846388113022,-0.5937986728209097 l 20.248922539178952 -21.048793363946128" fill="#f2ff19" stroke="none" /><path d="M 85.18274418774928 114.88116024355367 l -20.734220795857965 20.823644141533975 a50.385916139277185,50.385916139277185 0 0,0 -0.6093321794635788,-0.6172502807772431 l 21.08959360037708 -20.463653366776068" fill="#f0ff19" stroke="none" /><path d="M 84.67929136418377 114.36230785411682 l -21.03106456042295 19.715447300555503 a49.82714933540359,49.82714933540359 0 0,0 -0.5812066290019208,-0.6307850060782421 l 21.3673175974206 -19.35051103967592" fill="#f8ff18" stroke="none" /><path d="M 84.43433777217949 114.09645910891817 l -22.01935545747001 19.941004710753088 a50.70682890576998,50.70682890576998 0 0,0 -0.5803303614236975,-0.6520073130994518 l 22.359344668542043 -19.55902322791277" fill="#ebff1a" stroke="none" /><path d="M 84.19399662182784 113.82643327865904 l -22.415276218028943 19.60794981730099 a50.78114007166831,50.78114007166831 0 0,0 -0.5698550490678151,-0.662870163063351 l 22.74947377666754 -19.21920255507611" fill="#eaff1a" stroke="none" /><path d="M 83.72743513129214 113.27417163493432 l -23.09260651233921 18.837548033516224 a50.80137063037139,50.80137063037139 0 0,0 -0.5469180925042489,-0.6823644129001253 l 23.41344251689832 -18.43725578703784" fill="#e9ff1a" stroke="none" /><path d="M 83.50135304334701 112.99209946851258 l -22.81083338706208 17.962722464636563 a50.03435065838162,50.03435065838162 0 0,0 -0.5270122509787935,-0.6812343763564461 l 23.116652455258944 -17.567410094166867" fill="#f5ff19" stroke="none" /><path d="M 83.28015986056508 112.70617746262583 l -24.758452344427788 18.81508953224335 a52.09643961288229,52.09643961288229 0 0,0 -0.5364413386469362,-0.7186508371082425 l 25.07865494976981 -18.386125815625796" fill="#d7ff1c" stroke="none" /><path d="M 82.6465618267979 111.8261652097733 l -52.06031451960629 35.47849562931989 a84.0,84.0 0 0,0 -0.8039875783570785,-1.2018523431767165 l 52.6633052033741 -34.57710637193735" fill="#4dd2ff" stroke="none" /><path d="M 82.24976979558568 111.22182372390057 l -24.54473107381055 15.51735624208119 a50.03846015596105,50.03846015596105 0 0,0 -0.4540045731560319,-0.7319999301306804 l 24.808200286634538 -15.092559980585245" fill="#f5ff19" stroke="none" /><line stroke="#e1ed5e" stroke-width="0.3" x1="26.63291911575756" x2="22.317208475507996" y1="142.92168965132927" y2="145.44649492493687" /><path d="M 25.769776987707644 143.4266507060508 a86.0,86.0 0 0,1 -11.730757126820373,-40.83630448921669" fill="none" id="id57" stroke="none" /><text fill="#e1ed5e" style="font-size:6.75px; font-family:Arial;" text-anchor="middle"><textPath startOffset="21.46611528233685" xlink:href="#id57">September</textPath></text><path d="M 81.87401531095188 110.60418214915194 l -25.612471699876036 14.983975759374177 a50.67352753102441,50.67352753102441 0 0,0 -0.4339777511605856,-0.7566767892419981 l 25.866601447188998 -14.540879124273872" fill="#ebff1a" stroke="none" /><path d="M 81.69416730710424 110.29060199501025 l -27.17218548750059 15.274811633943212 a52.17126135753227,52.17126135753227 0 0,0 -0.4333285109249584,-0.786617116103198 l 27.431090407877065 -14.804823999442192" fill="#d5ff1c" stroke="none" /><path d="M 81.35079622478065 109.6543875284942 l -26.82755369474951 13.888185411687992 a51.209259032192286,51.209259032192286 0 0,0 -0.39850882049049996,-0.7862957093693639 l 27.062641185026276 -13.424335490615944" fill="#e3ff1b" stroke="none" /><path d="M 81.02952815118164 109.00673069616217 l -27.699799757565028 13.151208822965895 a51.66322227220185,51.66322227220185 0 0,0 -0.3744978002702441,-0.8066349448937401 l 27.922072174675098 -12.672453810793328" fill="#ddff1b" stroke="none" /><path d="M 80.87730276802145 108.67885076344099 l -16.930688179326207 7.6840057784841855 a39.592798257103595,39.592798257103595 0 0,0 -0.27631797928639884,-0.6230240974747131 l 17.060447243343887 -7.391433344516777" fill="#ff6309" stroke="none" /><path d="M 80.73074385275274 108.34839909993369 l -48.9114004614305 21.190848700562608 a74.3045698205,74.3045698205 0 0,0 -0.49836789295929396,-1.1779944834600946 l 49.268919335582105 -20.345779691436352" fill="#3effb6" stroke="none" /><path d="M 80.58989483394504 108.01547362559985 l -49.12334692120987 20.28566503270405 a74.14707347127037,74.14707347127037 0 0,0 -0.47700360887781057,-1.183883838453472 l 49.46525314434507 -19.437081826407773" fill="#3effb4" stroke="none" /><path d="M 80.0844068197444 106.66101706037122 l -28.570314152214827 9.555695794024345 a51.12597173311064,51.12597173311064 0 0,0 -0.27196034366250743,-0.837007872454627 l 28.730566746893583 -9.062489021591915" fill="#e5ff1a" stroke="none" /><path d="M 79.76711848015287 105.62410040840567 l -53.33176891762821 14.824543061570605 a76.35381335434494,76.35381335434494 0 0,0 -0.34109038616248455,-1.2693242156487827 l 53.57904738013247 -13.904327912746282" fill="#41ffd1" stroke="none" /><path d="M 79.67330655649465 105.27499134158121 l -29.6276796825892 7.6886953714911765 a51.609074469668286,51.609074469668286 0 0,0 -0.21574727705431562,-0.8618031262371181 l 29.755638273938576 -7.177564405856667" fill="#deff1b" stroke="none" /><path d="M 79.58551787078972 104.9243191809786 l -51.49002560523755 12.420267098235673 a73.96683652644865,73.96683652644865 0 0,0 -0.2879051122656692,-1.240287688463661 l 51.69619128343378 -11.532110752423439" fill="#3effb2" stroke="none" /><path d="M 79.29508885075956 103.50808413554451 l -29.8602089947772 5.05928881817318 a51.28578023689443,51.28578023689443 0 0,0 -0.13998147378053213,-0.871664770854139 l 29.94287222291902 -4.544544817625828" fill="#e2ff1b" stroke="none" /><path d="M 79.23777060512086 103.15116336523772 l -30.872641711073584 4.685659506875486 a52.22619751482228,52.22619751482228 0 0,0 -0.12724775988763906,-0.8899705362821477 l 30.948723521977822 -4.153543498612938" fill="#d5ff1c" stroke="none" /><path d="M 79.07016306316243 101.71520430193888 l -55.52685101626004 4.550436490433497 a76.71299360145179,76.71299360145179 0 0,0 -0.09652482314815139,-1.3170045225274039 l 55.596952398072524 -3.593958831409332" fill="#42ffd5" stroke="none" /><path d="M 79.0235259727143 100.99374915477108 l -53.69850058935663 2.5439375322913804 a74.75872565187288,74.75872565187288 0 0,0 -0.04983155761373518,-1.28593108046166 l 53.73433427982156 -1.6192292048157235" fill="#3fffbc" stroke="none" /><line stroke="#e1ed5e" stroke-width="0.3" x1="15.007084014347285" x2="10.007500721073583" y1="101.09737516637583" y2="101.16192664675087" /><path d="M 14.007167355692545 101.11028546245083 a86.0,86.0 0 0,1 10.666146001902534,-42.60595125391555" fill="none" id="id58" stroke="none" /><text fill="#e1ed5e" style="font-size:6.75px; font-family:Arial;" text-anchor="middle"><textPath startOffset="22.20632615414155" xlink:href="#id58">October</textPath></text><path d="M 79.21141760316559 97.0276538004421 l -29.83186006091973 -4.265351729385852 a51.135246806184824,51.135246806184824 0 0,0 0.13208503698867954,-0.8702753617418998 l 29.75401913049175 4.778226203519845" fill="#e5ff1a" stroke="none" /><path d="M 79.32604984820605 96.31383870115002 l -30.33839847319252 -5.409330558498405 a51.81686679416509,51.81686679416509 0 0,0 0.1641219706701438,-0.8767461299604056 l 30.240790778612514 5.930754765921383" fill="#dbff1b" stroke="none" /><path d="M 79.46518482838121 95.60439243477599 l -54.82982092715977 -11.736671289859087 a77.07190665449687,77.07190665449687 0 0,0 0.2888567456268531,-1.2948881515292507 l 54.619669794530886 12.678737610938297" fill="#42ffda" stroke="none" /><path d="M 79.54389044137918 95.25157060432595 l -55.07264938476124 -12.78388671545039 a77.53693014137141,77.53693014137141 0 0,0 0.3129804021169944,-1.2975058258795986 l 54.84443618238343 13.729977772989384" fill="#43ffe0" stroke="none" /><path d="M 79.81627453868168 94.20196356495316 l -54.60952015514551 -15.68729163338897 a77.818050040161,77.818050040161 0 0,0 0.3809160305902213,-1.2842594916479568 l 54.33139822744358 16.624980511783466" fill="#43ffe3" stroke="none" /><path d="M 80.14247586403 93.16781622104843 l -52.33977181862159 -18.00803250015766 a76.35106998561193,76.35106998561193 0 0,0 0.43828029826857795,-1.2390774226649752 l 52.0220384395432 18.90630754924925" fill="#41ffd1" stroke="none" /><path d="M 80.52162464483688 92.15188598940014 l -51.93936736562717 -20.92710861616198 a76.99680131377343,76.99680131377343 0 0,0 0.505899464782519,-1.225075681556457 l 51.57144621395845 21.818058868171747" fill="#42ffd9" stroke="none" /><path d="M 80.65960295795068 91.81776055985345 l -49.07446047465755 -20.76167232382258 a74.28554877788636,74.28554877788636 0 0,0 0.5083582611341412,-1.1733609559275624 l 48.709811503680726 21.60333242433674" fill="#3effb6" stroke="none" /><path d="M 80.95270993114464 91.15688171328213 l -27.566595520835637 -12.798390955963752 a51.39269648568633,51.39269648568633 0 0,0 0.3794293564992132,-0.7991749913373828 l 27.342207970494673 13.271008362941666" fill="#e1ff1b" stroke="none" /><line stroke="#e1ed5e" stroke-width="0.3" x1="26.266209847984243" x2="21.928928074336255" y1="57.711370442889674" y2="55.22380399835377" /><path d="M 25.398753493254645 57.213857153982495 a86.0,86.0 0 0,1 29.58750427330803,-30.492523968695096" fill="none" id="id59" stroke="none" /><text fill="#e1ed5e" style="font-size:6.75px; font-family:Arial;" text-anchor="middle"><textPath startOffset="21.46611528233685" xlink:href="#id59">November</textPath></text><line stroke="#e1ed5e" stroke-width="0.3" x1="56.762969772571076" x2="54.21961505331055" y1="26.818313649435495" y2="22.513508569990535" /><path d="M 56.25429882871897 25.957352633546506 a86.0,86.0 0 0,1 42.265352541879196,-11.944610805530505" fill="none" id="id60" stroke="none" /><text fill="#e1ed5e" style="font-size:6.75px; font-family:Arial;" text-anchor="middle"><textPath startOffset="22.20632615414155" xlink:href="#id60">December</textPath></text></svg>