<?xml version="1.0" encoding="utf-8" ?>
<svg baseProfile="full" height="200mm" version="1.1" viewBox="0,0,200,200" width="200mm" xmlns="http://www.w3.org/2000/svg" xmlns:ev="http://www.w3.org/2001/xml-events" xmlns:xlink="http://www.w3.org/1999/xlink"><defs /><rect fill="#1a1a1a" height="200" width="200" x="0" y="0" /><text alignment-baseline="middle" fill="#e1ed5e" style="dominant-baseline: central; font-size:9.0px; font-family:Arial;" text-anchor="middle" x="100.0" y="100.0">2022</text><line stroke="#e1ed5e" stroke-width="0.3" x1="100.0" x2="100.0" y1="15.0" y2="10.0" /><path d="M 100.0 14.0 a86.0,86.0 0 0,1 42.46469731375804,11.215312516191453" fill="none" id="id61" stroke="none" /><text fill="#e1ed5e" style="font-size:6.75px; font-family:Arial;" text-anchor="middle"><textPath startOffset="22.20632615414155" xlink:href="#id61">January</textPath></text><path d="M 100.36148047927253 79.00311137660856 l 0.5664987321773295 -32.90554114777565 a53.91041718121353,53.91041718121353 0 0,0 0.9277042311820736,0.02395986329735104 l -1.132829598554271 32.89091449233594" fill="#ff0000" stroke="none" /><path d="M 101.08401301168833 79.027996857942 l 2.3601364003258416 -45.66069546179037 a66.72165082193015,66.72165082193015 0 0,0 1.1464620847916238,0.06915772380677936 l -3.1457605339570773 45.61330446860328" fill="#a9ff21" stroke="none" /><path d="M 101.44485096284872 79.0497635885617 l 3.2153906704372943 -46.622936505491786 a67.73368106150696,67.73368106150696 0 0,0 1.1624706269128238,0.09023009374789634 l -4.017451486712459 46.56068114955543" fill="#92ff23" stroke="none" /><path d="M 101.80526077348638 79.07773832637324 l 3.9776626457962156 -46.09954414731931 a67.27083066808294,67.27083066808294 0 0,0 1.1528134112957167,0.10947352419492308 l -4.770601184182176 46.02424507860921" fill="#9dff22" stroke="none" /><path d="M 102.16513564639614 79.11191278185805 l 6.472231208001671 -62.44067441859685 a83.7752148435913,83.7752148435913 0 0,0 1.433087932973538,0.1610241271408158 l -7.546085844484934 62.32001433798543" fill="#4cd6ff" stroke="none" /><path d="M 103.2404852339499 79.25152402106235 l 7.09520350884275 -45.42981959200427 a66.98054393973553,66.98054393973553 0 0,0 1.1376192276302584,0.18771692005667195 l -7.876151942611883 45.30095640900797" fill="#a4ff21" stroke="none" /><path d="M 103.59715602781102 79.31037775812273 l 7.698767517241614 -44.28070131744981 a65.94498337356168,65.94498337356168 0 0,0 1.1166837060203152,0.2040668096125932 l -8.45984634436483 44.14161902648648" fill="#bcff1f" stroke="none" /><path d="M 103.95276090670814 79.375362276772 l 8.575029289843394 -44.74261832253754 a66.55692067817955,66.55692067817955 0 0,0 1.1233337319418528,0.22533017885245785 l -9.343929431252374 44.58838418760787" fill="#adff20" stroke="none" /><path d="M 104.307194497241 79.44645832069477 l 9.541842198675091 -45.53280597229745 a67.52185693042898,67.52185693042898 0 0,0 1.1355159549355014,0.24817980659671016 l -10.324200877764122 45.36181266760487" fill="#97ff23" stroke="none" /><path d="M 105.71112130821622 79.79150937346287 l 13.30059314939142 -47.06342195886771 a69.90676297409254,69.90676297409254 0 0,0 1.155158599966659,0.3372224718647467 l -14.108741967081505 46.82750115808426" fill="#63ff29" stroke="none" /><path d="M 106.0581310904928 79.89281104454417 l 12.615046082328432 -41.86986241635248 a64.72899228685193,64.72899228685193 0 0,0 1.0640664260531612,0.33061061818467163 l -13.33389788109231 41.64651166328529" fill="#d8ff1c" stroke="none" /><path d="M 106.40334571778207 80.00007090966166 l 15.95570543423323 -49.835350352053474 a73.3273033952251,73.3273033952251 0 0,0 1.1987868025820325,0.395221161019933 l -16.811175059057682 49.55331546677431" fill="#32ff46" stroke="none" /><path d="M 106.74666289553966 80.11325718540242 l 16.77589574384256 -49.44932469693429 a73.21749123608976,73.21749123608976 0 0,0 1.19002130362938,0.41517506615547356 l -17.624599051535213 49.153228777606614" fill="#31ff43" stroke="none" /><path d="M 108.09893153111575 80.62456947434976 l 19.115736924784272 -45.731419176689826 a70.56585617228532,70.56585617228532 0 0,0 1.1166752453087117,0.4781020631382174 l -19.9000959278833 45.39559758558882" fill="#55ff2b" stroke="none" /><path d="M 108.43124777332544 80.76684994638697 l 18.18346033196527 -41.47965170292587 a66.29017260996248,66.29017260996248 0 0,0 1.0411278236518713,0.46712370632496863 l -18.89477027408392 41.16050766608437" fill="#b3ff20" stroke="none" /><path d="M 110.05341064243156 81.56283822128135 l 30.16023192729467 -55.311485336155954 a84.0,84.0 0 0,0 1.2635036437118596,0.7031384097592803 l -31.107859660078564 54.7841315288365" fill="#4dd2ff" stroke="none" /><line stroke="#e1ed5e" stroke-width="0.3" x1="143.23703022742887" x2="145.7803849466894" y1="26.81831364943548" y2="22.513508569990506" /><path d="M 143.74570117128098 25.957352633546492 a86.0,86.0 0 0,1 28.547481713284135,27.462654790039103" fill="none" id="id62" stroke="none" /><text fill="#e1ed5e" style="font-size:6.75px; font-family:Arial;" text-anchor="middle"><textPath startOffset="19.985693538727396" xlink:href="#id62">February</textPath></text><line stroke="#e1ed5e" stroke-width="0.3" x1="172.23445277983987" x2="176.4835382374775" y1="55.19839476539836" y2="52.563006222186495" /><path d="M 173.08426987136738 54.67131705675599 a86.0,86.0 0 0,1 12.851231095245387,41.99856678651699" fill="none" id="id63" stroke="none" /><text fill="#e1ed5e" style="font-size:6.75px; font-family:Arial;" text-anchor="middle"><textPath startOffset="22.20632615414155" xlink:href="#id63">March</textPath></text><line stroke="#e1ed5e" stroke-width="0.3" x1="184.98032266829074" x2="189.97916517819016" y1="98.17113171792111" y2="98.06355123074" /><path d="M 185.9800911702706 98.14961562048488 a86.0,86.0 0 0,1 -9.607161424134198,41.387399972396054" fill="none" id="id64" stroke="none" /><text fill="#e1ed5e" style="font-size:6.75px; font-family:Arial;" text-anchor="middle"><textPath startOffset="21.466115282336823" xlink:href="#id64">April</textPath></text><line stroke="#e1ed5e" stroke-width="0.3" x1="174.80103733775053" x2="179.2010983576182" y1="140.37084112569926" y2="142.7455964860345" /><path d="M 175.68104954172406 140.8457921977663 a86.0,86.0 0 0,1 -30.038265399797805,32.042727171017184" fill="none" id="id65" stroke="none" /><text fill="#e1ed5e" style="font-size:6.75px; font-family:Arial;" text-anchor="middle"><textPath startOffset="22.206326154141568" xlink:href="#id65">May</textPath></text><line stroke="#e1ed5e" stroke-width="0.3" x1="143.8653032363475" x2="146.44561519142675" y1="172.8068346515853" y2="177.08958963109032" /><path d="M 144.38136562736335 173.6633856474863 a86.0,86.0 0 0,1 -40.68145358897372,12.25698825130547" fill="none" id="id66" stroke="none" /><text fill="#e1ed5e" style="font-size:6.75px; font-family:Arial;" text-anchor="middle"><textPath startOffset="21.466115282336833" xlink:href="#id66">June</textPath></text><line stroke="#e1ed5e" stroke-width="0.3" x1="102.19456741930631" x2="102.32365962044197" y1="184.97166512339345" y2="189.96999836594603" /><path d="M 102.22038585953345 185.97133177190398 a86.0,86.0 0 0,1 -42.740103519485714,-10.115201625700543" fill="none" id="id67" stroke="none" /><text fill="#e1ed5e" style="font-size:6.75px; font-family:Arial;" text-anchor="middle"><textPath startOffset="22.20632615414155" xlink:href="#id67">July</textPath></text><line stroke="#e1ed5e" stroke-width="0.3" x1="58.666819895761336" x2="56.23545636021788" y1="174.27360380694188" y2="178.64263932499728" /><path d="M 58.180547188652646 175.14741091055294 a86.0,86.0 0 0,1 -31.652253787137756,-30.449443065178592" fill="none" id="id68" stroke="none" /><text fill="#e1ed5e" style="font-size:6.75px; font-family:Arial;" text-anchor="middle"><textPath startOffset="22.20632615414155" xlink:href="#id68">August</textPath></text><line stroke="#e1ed5e" stroke-width="0.3" x1="26.63291911575756" x2="22.317208475507996" y1="142.92168965132927" y2="145.44649492493687" /><path d="M 25.769776987707644 143.4266507060508 a86.0,86.0 0 0,1 -11.730757126820373,-40.83630448921669" fill="none" id="id69" stroke="none" /><text fill="#e1ed5e" style="font-size:6.75px; font-family:Arial;" text-anchor="middle"><textPath startOffset="21.46611528233685" xlink:href="#id69">September</textPath></text><line stroke="#e1ed5e" stroke-width="0.3" x1="15.007084014347285" x2="10.007500721073583" y1="101.09737516637583" y2="101.16192664675087" /><path d="M 14.007167355692545 101.11028546245083 a86.0,86.0 0 0,1 10.666146001902534,-42.60595125391555" fill="none" id="id70" stroke="none" /><text fill="#e1ed5e" style="font-size:6.75px; font-family:Arial;" text-anchor="middle"><textPath startOffset="22.20632615414155" xlink:href="#id70">October</textPath></text><line stroke="#e1ed5e" stroke-width="0.3" x1="26.266209847984243" x2="21.928928074336255" y1="57.711370442889674" y2="55.22380399835377" /><path d="M 25.398753493254645 57.213857153982495 a86.0,86.0 0 0,1 29.58750427330803,-30.492523968695096" fill="none" id="id71" stroke="none" /><text fill="#e1ed5e" style="font-size:6.75px; font-family:Arial;" text-anchor="middle"><textPath startOffset="21.46611528233685" xlink:href="#id71">November</textPath></text><line stroke="#e1ed5e" stroke-width="0.3" x1="56.762969772571076" x2="54.21961505331055" y1="26.818313649435495" y2="22.513508569990535" /><path d="M 56.25429882871897 25.957352633546506 a86.0,86.0 0 0,1 42.265352541879196,-11.944610805530505" fill="none" id="id72" stroke="none" /><text fill="#e1ed5e" style="font-size:6.75px; font-family:Arial;" text-anchor="middle"><textPath startOffset="22.20632615414155" xlink:href="#id72">December</textPath></text></svg>