<?xml version="1.0" encoding="utf-8" ?>
<svg baseProfile="full" height="200mm" version="1.1" viewBox="0,0,200,200" width="200mm" xmlns="http://www.w3.org/2000/svg" xmlns:ev="http://www.w3.org/2001/xml-events" xmlns:xlink="http://www.w3.org/1999/xlink"><defs /><rect fill="#1a1a1a" height="200" width="200" x="0" y="0" /><text alignment-baseline="middle" fill="#e1ed5e" style="dominant-baseline: central; font-size:9.0px; font-family:Arial;" text-anchor="middle" x="100.0" y="100.0">2022</text><line stroke="#e1ed5e" stroke-width="0.3" x1="100.0" x2="100.0" y1="15.0" y2="10.0" /><path d="M 100.0 14.0 a86.0,86.0 0 0,1 42.46469731375804,11.215312516191453" fill="none" id="id61" stroke="none" /><text fill="#e1ed5e" style="font-size:6.75px; font-family:Arial;" text-anchor="middle"><textPath startOffset="22.20632615414155" xlink:href="#id61">January</textPath></text><path d="M 100.36148047927253 79.00311137660856 l 0.49813676320759465 -28.934680393629385 a49.9389680140177,49.9389680140177 0 0,0 0.8593625193391166,0.022194798508137166 l -0.996125917741579 28.92181880297889" fill="#ff1502" stroke="none" /><path d="M 101.08401301168833 79.027996857942 l 2.0753280464866455 -40.15061243954218 a61.20421204016879,61.20421204016879 0 0,0 1.051657260712403,0.06343883791757636 l -2.76614735603866 40.1089403322443" fill="#e2ff1b" stroke="none" /><path d="M 101.44485096284872 79.0497635885617 l 2.827374908436961 -40.99673549632755 a62.09411600495505,62.09411600495505 0 0,0 1.0656823138599365,0.08271745785131839 l -3.5326474116592386 40.94199277628777" fill="#cfff1d" stroke="none" /><path d="M 101.80526077348638 79.07773832637324 l 3.497660070470282 -40.536503265647085 a61.68711986580494,61.68711986580494 0 0,0 1.0571259248512106,0.10038684437337221 l -4.194911122411736 40.47029087675853" fill="#d8ff1c" stroke="none" /><path d="M 102.16513564639614 79.11191278185805 l 5.6911977407143 -54.90567530103968 a76.19984521705754,76.19984521705754 0 0,0 1.3035010280653465,0.146463528470206 l -6.635465472289372 54.79957581909888" fill="#3cffa2" stroke="none" /><path d="M 103.2404852339499 79.25152402106235 l 6.238993151158081 -39.94759740712374 a61.43186335233434,61.43186335233434 0 0,0 1.043378641440249,0.1721664158508187 l -6.925700998737206 39.834284728333294" fill="#ddff1b" stroke="none" /><path d="M 103.59715602781102 79.31037775812273 l 6.769722355752839 -38.93714844172329 a60.52126857208374,60.52126857208374 0 0,0 1.024840875298793,0.18728311934283515 l -7.4389583521545335 38.81484984102971" fill="#f0ff19" stroke="none" /><path d="M 103.95276090670814 79.375362276772 l 7.540241649677336 -39.343323828737056 a61.05936062930108,61.05936062930108 0 0,0 1.0305470677849917,0.20671804691420792 l -8.216355126929454 39.20770182574564" fill="#e5ff1a" stroke="none" /><path d="M 104.307194497241 79.44645832069477 l 8.390384863911374 -40.038155954248 a61.90785365160628,61.90785365160628 0 0,0 1.0411051880525402,0.22754526970287028 l -9.078332776117442 39.887797186449255" fill="#d3ff1c" stroke="none" /><path d="M 105.71112130821622 79.79150937346287 l 11.695550305494738 -41.38406557408671 a64.00496227633117,64.00496227633117 0 0,0 1.0576356201966637,0.30875283981369955 l -12.406176143414829 41.17661440535431" fill="#a9ff21" stroke="none" /><path d="M 106.0581310904928 79.89281104454417 l 11.092731309412116 -36.81723639497989 a59.452016639789434,59.452016639789434 0 0,0 0.977319322185766,0.3036578707498075 l -11.7248360043086 36.62083838934756" fill="#fff717" stroke="none" /><path d="M 106.40334571778207 80.00007090966166 l 14.03025815989786 -43.82149280771476 a67.01273058545839,67.01273058545839 0 0,0 1.0955534065918477,0.3611867334374861 l -14.782494388732125 43.57349235001804" fill="#6fff28" stroke="none" /><path d="M 106.74666289553966 80.11325718540242 l 14.751472388344068 -43.48205061758474 a66.9161699571543,66.9161699571543 0 0,0 1.0876044297874894,0.3794438298800712 l -15.49775882219483 43.22168593453246" fill="#71ff27" stroke="none" /><path d="M 108.09893153111575 80.62456947434976 l 16.808954331532753 -40.212801603296576 a64.58451971176974,64.58451971176974 0 0,0 1.0220230902634588,0.43757695004223995 l -17.498661179586527 39.91750512529154" fill="#9dff22" stroke="none" /><path d="M 108.43124777332544 80.76684994638697 l 15.989179779564841 -36.47411417649201 a60.82480225918292,60.82480225918292 0 0,0 0.9552908298000338,0.42861114927196337 l -16.614652727831654 36.19348269670352" fill="#eaff1a" stroke="none" /><path d="M 110.05341064243156 81.56283822128135 l 26.520660076517213 -48.6367977694473 a76.39750453008048,76.39750453008048 0 0,0 1.1491491112410714,0.639500236248312 l -27.35393327683032 48.1730821356388" fill="#3cffa6" stroke="none" /><line stroke="#e1ed5e" stroke-width="0.3" x1="143.23703022742887" x2="145.7803849466894" y1="26.81831364943548" y2="22.513508569990506" /><path d="M 143.74570117128098 25.957352633546492 a86.0,86.0 0 0,1 28.547481713284135,27.462654790039103" fill="none" id="id62" stroke="none" /><text fill="#e1ed5e" style="font-size:6.75px; font-family:Arial;" text-anchor="middle"><textPath startOffset="19.985693538727396" xlink:href="#id62">February</textPath></text><path d="M 111.60114157652 82.49532879139004 l 30.55635906900051 -46.105722898653624 a76.31210322850798,76.31210322850798 0 0,0 1.0887022803440178,0.735096639550541 l -31.34546604375107 45.57291434680441" fill="#3cffa5" stroke="none" /><path d="M 112.19680574252982 82.90503203632743 l 36.590417227589455 -51.28490389101772 a84.0,84.0 0 0,0 1.1698187345848452,0.8499230607333006 l -37.46778127852809 50.647461595467746" fill="#4dd2ff" stroke="none" /><path d="M 112.77801427241765 83.33499621200491 l 25.873720362891305 -33.7443391957902 a63.52210993327635,63.52210993327635 0 0,0 0.8619873027889301,0.6727947624427982 l -26.450740220839666 33.293966044124176" fill="#b2ff20" stroke="none" /><path d="M 113.06298171725822 83.55741782278167 l 26.768275188367223 -33.6936523416878 a64.03257794604781,64.03257794604781 0 0,0 0.8571114305613502,0.6930578354093346 l -27.344290017493066 33.227888409014334" fill="#a8ff21" stroke="none" /><path d="M 113.34407831869373 83.78471172551755 l 28.69883002703208 -34.873881201429654 a66.16426059365864,66.16426059365864 0 0,0 0.8731869593431127,0.7312689669372332 l -29.29487452333431 34.374711077098596" fill="#7fff26" stroke="none" /><path d="M 114.42810811169701 84.74124197986012 l 20.841891912516072 -22.04179390069652 a51.335212820314695,51.335212820314695 0 0,0 0.6368420539245041,0.612641551306075 l -21.218217210052995 21.67976926262814" fill="#ff3905" stroke="none" /><path d="M 115.9244219780498 86.31012108654704 l 23.021224002130413 -19.79084512223145 a51.35875994187539,51.35875994187539 0 0,0 0.570545409471549,0.6753458055283826 l -23.35848002508908 19.39164036707396" fill="#ff3905" stroke="none" /><path d="M 116.82858285166822 87.43820079747576 l 22.52556444273367 -16.814346160175365 a49.109131794809166,49.109131794809166 0 0,0 0.4998313110260246,0.6817693465177722 l -22.811658366273324 16.424114369986096" fill="#ff0000" stroke="none" /><line stroke="#e1ed5e" stroke-width="0.3" x1="172.23445277983987" x2="176.4835382374775" y1="55.19839476539836" y2="52.563006222186495" /><path d="M 173.08426987136738 54.67131705675599 a86.0,86.0 0 0,1 12.851231095245387,41.99856678651699" fill="none" id="id63" stroke="none" /><text fill="#e1ed5e" style="font-size:6.75px; font-family:Arial;" text-anchor="middle"><textPath startOffset="22.20632615414155" xlink:href="#id63">March</textPath></text><path d="M 119.196687751892 91.48605970444005 l 27.297295051245815 -12.10664794366335 a50.86156796865458,50.86156796865458 0 0,0 0.34806094424112366,0.8033726477556843 l -27.50164670532962 11.634976151321064" fill="#ff2d04" stroke="none" /><path d="M 119.61058180528143 92.48833698450437 l 51.42026747386079 -19.69608679974348 a76.06341564329637,76.06341564329637 0 0,0 0.45781270096220755,1.226710428424074 l -51.75168476332462 18.808053234290075" fill="#3bffa0" stroke="none" /><path d="M 119.85752413597 93.16781622104841 l 27.854002656365036 -9.583453799407687 a50.45654512508506,50.45654512508506 0 0,0 0.2754992386175741,0.8237076572615788 l -28.014839188754383 9.102573039223795" fill="#ff2303" stroke="none" /><path d="M 120.73433829027371 96.67025291283417 l 28.384883121955642 -4.558355350998117 a49.748568544417225,49.748568544417225 0 0,0 0.1285031739697934,0.8466753597618123 l -28.459142189364737 4.069080878844223" fill="#ff1101" stroke="none" /><line stroke="#e1ed5e" stroke-width="0.3" x1="184.98032266829074" x2="189.97916517819016" y1="98.17113171792111" y2="98.06355123074" /><path d="M 185.9800911702706 98.14961562048488 a86.0,86.0 0 0,1 -9.607161424134198,41.387399972396054" fill="none" id="id64" stroke="none" /><text fill="#e1ed5e" style="font-size:6.75px; font-family:Arial;" text-anchor="middle"><textPath startOffset="21.466115282336823" xlink:href="#id64">April</textPath></text><line stroke="#e1ed5e" stroke-width="0.3" x1="174.80103733775053" x2="179.2010983576182" y1="140.37084112569926" y2="142.7455964860345" /><path d="M 175.68104954172406 140.8457921977663 a86.0,86.0 0 0,1 -30.038265399797805,32.042727171017184" fill="none" id="id65" stroke="none" /><text fill="#e1ed5e" style="font-size:6.75px; font-family:Arial;" text-anchor="middle"><textPath startOffset="22.206326154141568" xlink:href="#id65">May</textPath></text><line stroke="#e1ed5e" stroke-width="0.3" x1="143.8653032363475" x2="146.44561519142675" y1="172.8068346515853" y2="177.08958963109032" /><path d="M 144.38136562736335 173.6633856474863 a86.0,86.0 0 0,1 -40.68145358897372,12.25698825130547" fill="none" id="id66" stroke="none" /><text fill="#e1ed5e" style="font-size:6.75px; font-family:Arial;" text-anchor="middle"><textPath startOffset="21.466115282336833" xlink:href="#id66">June</textPath></text><line stroke="#e1ed5e" stroke-width="0.3" x1="102.19456741930631" x2="102.32365962044197" y1="184.97166512339345" y2="189.96999836594603" /><path d="M 102.22038585953345 185.97133177190398 a86.0,86.0 0 0,1 -42.740103519485714,-10.115201625700543" fill="none" id="id67" stroke="none" /><text fill="#e1ed5e" style="font-size:6.75px; font-family:Arial;" text-anchor="middle"><textPath startOffset="22.20632615414155" xlink:href="#id67">July</textPath></text><line stroke="#e1ed5e" stroke-width="0.3" x1="58.666819895761336" x2="56.23545636021788" y1="174.27360380694188" y2="178.64263932499728" /><path d="M 58.180547188652646 175.14741091055294 a86.0,86.0 0 0,1 -31.652253787137756,-30.449443065178592" fill="none" id="id68" stroke="none" /><text fill="#e1ed5e" style="font-size:6.75px; font-family:Arial;" text-anchor="middle"><textPath startOffset="22.20632615414155" xlink:href="#id68">August</textPath></text><line stroke="#e1ed5e" stroke-width="0.3" x1="26.63291911575756" x2="22.317208475507996" y1="142.92168965132927" y2="145.44649492493687" /><path d="M 25.769776987707644 143.4266507060508 a86.0,86.0 0 0,1 -11.730757126820373,-40.83630448921669" fill="none" id="id69" stroke="none" /><text fill="#e1ed5e" style="font-size:6.75px; font-family:Arial;" text-anchor="middle"><textPath startOffset="21.46611528233685" xlink:href="#id69">September</textPath></text><line stroke="#e1ed5e" stroke-width="0.3" x1="15.007084014347285" x2="10.007500721073583" y1="101.09737516637583" y2="101.16192664675087" /><path d="M 14.007167355692545 101.11028546245083 a86.0,86.0 0 0,1 10.666146001902534,-42.60595125391555" fill="none" id="id70" stroke="none" /><text fill="#e1ed5e" style="font-size:6.75px; font-family:Arial;" text-anchor="middle"><textPath startOffset="22.20632615414155" xlink:href="#id70">October</textPath></text><line stroke="#e1ed5e" stroke-width="0.3" x1="26.266209847984243" x2="21.928928074336255" y1="57.711370442889674" y2="55.22380399835377" /><path d="M 25.398753493254645 57.213857153982495 a86.0,86.0 0 0,1 29.58750427330803,-30.492523968695096" fill="none" id="id71" stroke="none" /><text fill="#e1ed5e" style="font-size:6.75px; font-family:Arial;" text-anchor="middle"><textPath startOffset="21.46611528233685" xlink:href="#id71">November</textPath></text><line stroke="#e1ed5e" stroke-width="0.3" x1="56.762969772571076" x2="54.21961505331055" y1="26.818313649435495" y2="22.513508569990535" /><path d="M 56.25429882871897 25.957352633546506 a86.0,86.0 0 0,1 42.265352541879196,-11.944610805530505" fill="none" id="id72" stroke="none" /><text fill="#e1ed5e" style="font-size:6.75px; font-family:Arial;" text-anchor="middle"><textPath startOffset="22.20632615414155" xlink:href="#id72">December</textPath></text></svg>