<?xml version="1.0" encoding="utf-8" ?>
<svg baseProfile="full" height="200mm" version="1.1" viewBox="0,0,200,200" width="200mm" xmlns="http://www.w3.org/2000/svg" xmlns:ev="http://www.w3.org/2001/xml-events" xmlns:xlink="http://www.w3.org/1999/xlink"><defs /><rect fill="#1a1a1a" height="200" width="200" x="0" y="0" /><text alignment-baseline="middle" fill="#e1ed5e" style="dominant-baseline: central; font-size:9.0px; font-family:Arial;" text-anchor="middle" x="100.0" y="100.0">2022</text><line stroke="#e1ed5e" stroke-width="0.3" x1="100.0" x2="100.0" y1="15.0" y2="10.0" /><path d="M 100.0 14.0 a86.0,86.0 0 0,1 42.46469731375804,11.215312516191453" fill="none" id="id61" stroke="none" /><text fill="#e1ed5e" style="font-size:6.75px; font-family:Arial;" text-anchor="middle"><textPath startOffset="22.20632615414155" xlink:href="#id61">January</textPath></text><path d="M 100.36148047927253 79.00311137660856 l 0.4980543349153705 -28.929892479010235 a49.93417938991222,49.93417938991222 0 0,0 0.8592801154721743,0.02219267025936914 l -0.9959610855824127 28.917033016608507" fill="#ff1502" stroke="none" /><path d="M 101.08401301168833 79.027996857942 l 2.074984635280503 -40.14396858857676 a61.19755931990508,61.19755931990508 0 0,0 1.0515429486195649,0.06343194229996359 l -2.76568963273968 40.102303376896494" fill="#e2ff1b" stroke="none" /><path d="M 101.44485096284872 79.0497635885617 l 2.8269070536179766 -40.98995163465879 a62.08731602942034,62.08731602942034 0 0,0 1.0655656101506603,0.08270839939737991 l -3.532062853130978 40.935217973072945" fill="#cfff1d" stroke="none" /><path d="M 101.80526077348638 79.07773832637324 l 3.497081301409887 -40.52979556008564 a61.68038723723028,61.68038723723028 0 0,0 1.0570105484772747,0.10037588799644266 l -4.194216976977406 40.46359412757402" fill="#d8ff1c" stroke="none" /><path d="M 102.16513564639614 79.11191278185805 l 5.690255999921156 -54.89658988237004 a76.19071112114584,76.19071112114584 0 0,0 1.3033447770470217,0.14644597184771152 l -6.634367480477903 54.79050795705172" fill="#3cffa2" stroke="none" /><path d="M 103.2404852339499 79.25152402106235 l 6.237960764896652 -39.94098714970863 a61.42517296187587,61.42517296187587 0 0,0 1.0432650096842462,0.17214766563744377 l -6.9245549807197735 39.82769322113156" fill="#ddff1b" stroke="none" /><path d="M 103.59715602781102 79.31037775812273 l 6.768602148023091 -38.930705386548105 a60.51472886067205,60.51472886067205 0 0,0 1.0247301346661941,0.187262882200064 l -7.437727403792186 38.80842702299731" fill="#f0ff19" stroke="none" /><path d="M 103.95276090670814 79.375362276772 l 7.53899394164202 -39.33681356241432 a61.052731878066176,61.052731878066176 0 0,0 1.0304351891135186,0.2066956051052103 l -8.214995540222665 39.201214001231904" fill="#e5ff1a" stroke="none" /><path d="M 104.307194497241 79.44645832069477 l 8.388996479944323 -40.03153071181887 a61.901084497502204,61.901084497502204 0 0,0 1.0409913510990552,0.22752038935400629 l -9.076830555196906 39.881196824368985" fill="#d3ff1c" stroke="none" /><path d="M 105.71112130821622 79.79150937346287 l 11.6936150051726 -41.377217619664314 a63.99784610691862,63.99784610691862 0 0,0 1.0575180306538785,0.308718512201643 l -12.404123253549907 41.169800778543966" fill="#a9ff21" stroke="none" /><path d="M 106.0581310904928 79.89281104454417 l 11.090895759487937 -36.81114412846876 a59.44565386093372,59.44565386093372 0 0,0 0.9772147257890422,0.3036253721401962 l -11.722895857987698 36.61477862144604" fill="#fff717" stroke="none" /><path d="M 106.40334571778207 80.00007090966166 l 14.027936527958593 -43.81424152436921 a67.00511671095069,67.00511671095069 0 0,0 1.0954289316438581,0.36114569600417734 l -14.780048281844868 43.566282104105795" fill="#6fff27" stroke="none" /><path d="M 106.74666289553966 80.11325718540242 l 14.749031414766984 -43.47485550283004 a66.9085720608443,66.9085720608443 0 0,0 1.0874809393712104,0.3794007464986293 l -15.495194358201468 43.2145339031592" fill="#71ff27" stroke="none" /><path d="M 108.09893153111575 80.62456947434976 l 16.806172899801638 -40.206147461690236 a64.57730764112449,64.57730764112449 0 0,0 1.0219089622532025,0.43752808638434604 l -17.495765619845155 39.910899847343096" fill="#9dff22" stroke="none" /><path d="M 108.43124777332544 80.76684994638697 l 15.986533998565244 -36.46807868751786 a60.818212321075855,60.818212321075855 0 0,0 0.9551873307797526,0.4285647122784872 l -16.611903447811777 36.18749364472284" fill="#eaff1a" stroke="none" /><path d="M 110.05341064243156 81.56283822128135 l 26.516271617603458 -48.62874968210362 a76.38833772684657,76.38833772684657 0 0,0 1.1490112268447947,0.6394235037310683 l -27.34940693352029 48.16511078081237" fill="#3cffa6" stroke="none" /><line stroke="#e1ed5e" stroke-width="0.3" x1="143.23703022742887" x2="145.7803849466894" y1="26.81831364943548" y2="22.513508569990506" /><path d="M 143.74570117128098 25.957352633546492 a86.0,86.0 0 0,1 28.547481713284135,27.462654790039103" fill="none" id="id62" stroke="none" /><text fill="#e1ed5e" style="font-size:6.75px; font-family:Arial;" text-anchor="middle"><textPath startOffset="19.985693538727396" xlink:href="#id62">February</textPath></text><path d="M 111.60114157652 82.49532879139004 l 30.551302809995597 -46.0980936364088 a76.3029505569021,76.3029505569021 0 0,0 1.0885717042751244,0.7350084740059453 l -31.340279208677263 45.56537325010419" fill="#3cffa4" stroke="none" /><path d="M 112.19680574252982 82.90503203632743 l 36.58436249357541 -51.27641761303776 a83.98957518739094,83.98957518739094 0 0,0 1.169673554333719,0.8498175811066307 l -37.46158136426292 50.63908079711445" fill="#4dd2ff" stroke="none" /><path d="M 112.77801427241765 83.33499621200491 l 25.869438955172534 -33.738755411461106 a63.51507366299386,63.51507366299386 0 0,0 0.8618918214573297,0.6727202377489844 l -26.446363331789296 33.2884567844889" fill="#b2ff20" stroke="none" /><path d="M 113.06298171725822 83.55741782278167 l 26.763845755784583 -33.68807694467547 a64.02545720698159,64.02545720698159 0 0,0 0.8570161155351015,0.6929807639534906 l -27.339765269884175 33.22239008345785" fill="#a8ff21" stroke="none" /><path d="M 113.34407831869373 83.78471172551755 l 28.694081139331576 -34.86811050815225 a66.15678711820917,66.15678711820917 0 0,0 0.8730883299434202,0.7311863676514204 l -29.290027006234112 34.36902298310701" fill="#7fff26" stroke="none" /><path d="M 114.42810811169701 84.74124197986012 l 20.838443137633437 -22.038146574172995 a51.33019315509077,51.33019315509077 0 0,0 0.6367797821672523,0.6125816459249365 l -21.21470616341311 21.676181841485757" fill="#ff3905" stroke="none" /><path d="M 115.9244219780498 86.31012108654704 l 23.017414606158138 -19.787570267441385 a51.35373638023353,51.35373638023353 0 0,0 0.570489602632809,0.6752797478336976 l -23.354614822278066 19.388431569978582" fill="#ff3905" stroke="none" /><path d="M 116.82858285166822 87.43820079747576 l 22.52183706514274 -16.81156383624102 a49.10448048637164,49.10448048637164 0 0,0 0.49978397014441367,0.6817047736084577 l -22.807883647800782 16.421396618961072" fill="#ff0000" stroke="none" /><line stroke="#e1ed5e" stroke-width="0.3" x1="172.23445277983987" x2="176.4835382374775" y1="55.19839476539836" y2="52.563006222186495" /><path d="M 173.08426987136738 54.67131705675599 a86.0,86.0 0 0,1 12.851231095245387,41.99856678651699" fill="none" id="id63" stroke="none" /><text fill="#e1ed5e" style="font-size:6.75px; font-family:Arial;" text-anchor="middle"><textPath startOffset="22.20632615414155" xlink:href="#id63">March</textPath></text><path d="M 119.196687751892 91.48605970444005 l 27.292778080045128 -12.10464461769293 a50.85662667896751,50.85662667896751 0 0,0 0.34802712951572407,0.803294598707301 l -27.497095919403534 11.633050874399027" fill="#ff2d04" stroke="none" /><path d="M 119.61058180528143 92.48833698450437 l 51.41175879683343 -19.692827624917776 a76.05430412282499,76.05430412282499 0 0,0 0.45775786027747634,1.2265634826540672 l -51.743121245612535 18.804941005234376" fill="#3bffa0" stroke="none" /><path d="M 119.85752413597 93.16781622104841 l 27.849393564966547 -9.58186799448695 a50.451670855830464,50.451670855830464 0 0,0 0.2754726244793066,0.8236280843756705 l -28.010203483217623 9.101066807188966" fill="#ff2303" stroke="none" /><path d="M 120.73433829027371 96.67025291283417 l 28.38018618405919 -4.5576010652784404 a49.7438114263243,49.7438114263243 0 0,0 0.1284908860830908,0.84659439794139 l -28.45443296358158 4.068407554944968" fill="#ff1101" stroke="none" /><line stroke="#e1ed5e" stroke-width="0.3" x1="184.98032266829074" x2="189.97916517819016" y1="98.17113171792111" y2="98.06355123074" /><path d="M 185.9800911702706 98.14961562048488 a86.0,86.0 0 0,1 -9.607161424134198,41.387399972396054" fill="none" id="id64" stroke="none" /><text fill="#e1ed5e" style="font-size:6.75px; font-family:Arial;" text-anchor="middle"><textPath startOffset="21.466115282336823" xlink:href="#id64">April</textPath></text><path d="M 120.99824983174949 100.27111621757518 l 55.647339568372445 0.7184835089964302 a76.65197767905872,76.65197767905872 0 0,0 -0.028390203688472688,1.3191812082400294 l -55.62672730199897 -1.6762545330265743" fill="#3dffab" stroke="none" /><path d="M 120.9764740272857 100.99374915477107 l 55.497973056989856 2.6291865708770574 a76.56021630140448,76.56021630140448 0 0,0 -0.07369339753768807,1.3158451174597459 l -55.44449330856464 -3.5841034046722267" fill="#3dffa9" stroke="none" /><path d="M 120.92983693683757 101.71520430193887 l 28.102792791877274 2.303029461652736 a49.19700174494497,49.19700174494497 0 0,0 -0.07643200208982184,0.8434207740851734 l -28.058986193510375 -2.7864316242864797" fill="#ff0200" stroke="none" /><path d="M 120.8583938346157 102.4346265915055 l 62.575181503847105 7.303879774516526 a84.0,84.0 0 0,0 -0.1799939630126075,1.4347289828504204 l -62.44018603158764 -8.379926511654341" fill="#4dd2ff" stroke="none" /><line stroke="#e1ed5e" stroke-width="0.3" x1="174.80103733775053" x2="179.2010983576182" y1="140.37084112569926" y2="142.7455964860345" /><path d="M 175.68104954172406 140.8457921977663 a86.0,86.0 0 0,1 -30.038265399797805,32.042727171017184" fill="none" id="id65" stroke="none" /><text fill="#e1ed5e" style="font-size:6.75px; font-family:Arial;" text-anchor="middle"><textPath startOffset="22.206326154141568" xlink:href="#id65">May</textPath></text><line stroke="#e1ed5e" stroke-width="0.3" x1="143.8653032363475" x2="146.44561519142675" y1="172.8068346515853" y2="177.08958963109032" /><path d="M 144.38136562736335 173.6633856474863 a86.0,86.0 0 0,1 -40.68145358897372,12.25698825130547" fill="none" id="id66" stroke="none" /><text fill="#e1ed5e" style="font-size:6.75px; font-family:Arial;" text-anchor="middle"><textPath startOffset="21.466115282336833" xlink:href="#id66">June</textPath></text><line stroke="#e1ed5e" stroke-width="0.3" x1="102.19456741930631" x2="102.32365962044197" y1="184.97166512339345" y2="189.96999836594603" /><path d="M 102.22038585953345 185.97133177190398 a86.0,86.0 0 0,1 -42.740103519485714,-10.115201625700543" fill="none" id="id67" stroke="none" /><text fill="#e1ed5e" style="font-size:6.75px; font-family:Arial;" text-anchor="middle"><textPath startOffset="22.20632615414155" xlink:href="#id67">July</textPath></text><line stroke="#e1ed5e" stroke-width="0.3" x1="58.666819895761336" x2="56.23545636021788" y1="174.27360380694188" y2="178.64263932499728" /><path d="M 58.180547188652646 175.14741091055294 a86.0,86.0 0 0,1 -31.652253787137756,-30.449443065178592" fill="none" id="id68" stroke="none" /><text fill="#e1ed5e" style="font-size:6.75px; font-family:Arial;" text-anchor="middle"><textPath startOffset="22.20632615414155" xlink:href="#id68">August</textPath></text><line stroke="#e1ed5e" stroke-width="0.3" x1="26.63291911575756" x2="22.317208475507996" y1="142.92168965132927" y2="145.44649492493687" /><path d="M 25.769776987707644 143.4266507060508 a86.0,86.0 0 0,1 -11.730757126820373,-40.83630448921669" fill="none" id="id69" stroke="none" /><text fill="#e1ed5e" style="font-size:6.75px; font-family:Arial;" text-anchor="middle"><textPath startOffset="21.46611528233685" xlink:href="#id69">September</textPath></text><line stroke="#e1ed5e" stroke-width="0.3" x1="15.007084014347285" x2="10.007500721073583" y1="101.09737516637583" y2="101.16192664675087" /><path d="M 14.007167355692545 101.11028546245083 a86.0,86.0 0 0,1 10.666146001902534,-42.60595125391555" fill="none" id="id70" stroke="none" /><text fill="#e1ed5e" style="font-size:6.75px; font-family:Arial;" text-anchor="middle"><textPath startOffset="22.20632615414155" xlink:href="#id70">October</textPath></text><line stroke="#e1ed5e" stroke-width="0.3" x1="26.266209847984243" x2="21.928928074336255" y1="57.711370442889674" y2="55.22380399835377" /><path d="M 25.398753493254645 57.213857153982495 a86.0,86.0 0 0,1 29.58750427330803,-30.492523968695096" fill="none" id="id71" stroke="none" /><text fill="#e1ed5e" style="font-size:6.75px; font-family:Arial;" text-anchor="middle"><textPath startOffset="21.46611528233685" xlink:href="#id71">November</textPath></text><line stroke="#e1ed5e" stroke-width="0.3" x1="56.762969772571076" x2="54.21961505331055" y1="26.818313649435495" y2="22.513508569990535" /><path d="M 56.25429882871897 25.957352633546506 a86.0,86.0 0 0,1 42.265352541879196,-11.944610805530505" fill="none" id="id72" stroke="none" /><text fill="#e1ed5e" style="font-size:6.75px; font-family:Arial;" text-anchor="middle"><textPath startOffset="22.20632615414155" xlink:href="#id72">December</textPath></text></svg>