<?xml version="1.0" encoding="utf-8" ?>
<svg baseProfile="full" height="200mm" version="1.1" viewBox="0,0,200,200" width="200mm" xmlns="http://www.w3.org/2000/svg" xmlns:ev="http://www.w3.org/2001/xml-events" xmlns:xlink="http://www.w3.org/1999/xlink"><defs /><rect fill="#1a1a1a" height="200" width="200" x="0" y="0" /><text alignment-baseline="middle" fill="#e1ed5e" style="dominant-baseline: central; font-size:9.0px; font-family:Arial;" text-anchor="middle" x="100.0" y="100.0">2021</text><line stroke="#e1ed5e" stroke-width="0.3" x1="100.0" x2="100.0" y1="15.0" y2="10.0" /><path d="M 100.0 14.0 a86.0,86.0 0 0,1 42.46469731375804,11.215312516191453" fill="none" id="id49" stroke="none" /><text fill="#e1ed5e" style="font-size:6.75px; font-family:Arial;" text-anchor="middle"><textPath startOffset="22.20632615414155" xlink:href="#id49">January</textPath></text><path d="M 105.36241919743992 79.69619591428918 l 8.319825744922559 -31.501474564466516 a53.581626726755175,53.581626726755175 0 0,0 0.8897155399260361,0.24319286626101683 l -8.860839174072307 31.353595157379203" fill="#c0ff1e" stroke="none" /><path d="M 106.74666289553966 80.11325718540242 l 10.504870754979791 -30.964591864073043 a53.69798554785062,53.69798554785062 0 0,0 0.872766133953889,0.30449096692424693 l -11.036318892996952 30.779180043976588" fill="#beff1e" stroke="none" /><path d="M 107.08798089147638 80.2323363322302 l 11.472930431232832 -31.99684557855688 a54.99156159487121,54.99156159487121 0 0,0 0.8882909345879199,0.3271650478043059 l -12.022003691593328 31.79461726294625" fill="#acff20" stroke="none" /><line stroke="#e1ed5e" stroke-width="0.3" x1="143.23703022742887" x2="145.7803849466894" y1="26.81831364943548" y2="22.513508569990506" /><path d="M 143.74570117128098 25.957352633546492 a86.0,86.0 0 0,1 28.547481713284135,27.462654790039103" fill="none" id="id50" stroke="none" /><text fill="#e1ed5e" style="font-size:6.75px; font-family:Arial;" text-anchor="middle"><textPath startOffset="19.985693538727396" xlink:href="#id50">February</textPath></text><path d="M 111.60114157652 82.49532879139004 l 17.494124523241627 -26.396445198256483 a52.66728141061752,52.66728141061752 0 0,0 0.7513747747138387,0.5073316019515056 l -17.94590399236201 26.091401684006307" fill="#cdff1d" stroke="none" /><path d="M 112.48926042617603 83.11751280151076 l 19.15484290120879 -25.892757379849368 a53.20780792450385,53.20780792450385 0 0,0 0.7316171042040799,0.5510388348732809 l -19.597706159171256 25.55920195547024" fill="#c5ff1e" stroke="none" /><path d="M 113.06298171725822 83.55741782278167 l 20.409040750936352 -25.68918314125166 a53.8094967172334,53.8094967172334 0 0,0 0.720269840579499,0.5824081196720469 l -20.848213990080342 25.334068924315485" fill="#bdff1f" stroke="none" /><path d="M 114.16331599549186 84.49514656593476 l 36.28234747431284 -39.7189810643289 a74.79596820427432,74.79596820427432 0 0,0 0.943113462115388,0.8765211788180436 l -36.96066882022308 39.088555299436216" fill="#3fffbd" stroke="none" /><path d="M 114.68862486808459 84.99185889309783 l 24.22635284369538 -24.75333976115042 a55.63587737358731,55.63587737358731 0 0,0 0.6786628575901885,0.6757484636013503 l -24.64885150145289 24.332655446898954" fill="#a3ff21" stroke="none" /><path d="M 115.19652480421416 85.50635884689758 l 39.871830155523334 -38.02764157179859 a76.09867841848917,76.09867841848917 0 0,0 0.8959085742815055,0.9556928016246445 l -40.5205060517753 37.335679353295895" fill="#41ffce" stroke="none" /><path d="M 115.68641384162765 86.03803664274999 l 39.521394676900606 -35.176699395879666 a73.90879716640163,73.90879716640163 0 0,0 0.8376616704180031,0.9575920937490254 l -40.12104821089646 34.49119174592769" fill="#3effb1" stroke="none" /><path d="M 116.38621287248628 86.86637796730983 l 24.763304670463462 -19.84789812954937 a52.73578923491847,52.73578923491847 0 0,0 0.5616259080498226,0.7132078692193488 l -25.10128465910725 19.418697866376984" fill="#ccff1d" stroke="none" /><path d="M 117.65298651832404 88.62581576622439 l 16.34464600015932 -10.53119338468206 a40.44359758316591,40.44359758316591 0 0,0 0.3720279505524484,0.5884588750683994 l -16.523501546957725 10.248286861899455" fill="#ff730a" stroke="none" /><line stroke="#e1ed5e" stroke-width="0.3" x1="172.23445277983987" x2="176.4835382374775" y1="55.19839476539836" y2="52.563006222186495" /><path d="M 173.08426987136738 54.67131705675599 a86.0,86.0 0 0,1 12.851231095245387,41.99856678651699" fill="none" id="id51" stroke="none" /><text fill="#e1ed5e" style="font-size:6.75px; font-family:Arial;" text-anchor="middle"><textPath startOffset="22.20632615414155" xlink:href="#id51">March</textPath></text><path d="M 118.3937258080291 89.86733742301442 l 27.828875091255025 -15.330260119115072 a52.772050046611795,52.772050046611795 0 0,0 0.4314539800305277,0.7994186984932581 l -28.08863717050402 14.848960437289357" fill="#ccff1d" stroke="none" /><path d="M 119.85752413597 93.16781622104841 l 50.76795767722407 -17.467233808092644 a74.68882363791359,74.68882363791359 0 0,0 0.40781060206315056,1.21930179305564 l -51.06110557305899 16.590758912114687" fill="#3fffbb" stroke="none" /><path d="M 120.28053869075195 94.5502522615342 l 30.655894575411505 -8.237793614879582 a52.743426340899234,52.743426340899234 0 0,0 0.22806174197534046,0.8788149240705504 l -30.79315264925715 7.708882265260181" fill="#ccff1d" stroke="none" /><path d="M 120.45610955862082 95.25157060432595 l 30.628428162295688 -7.109706183981808 a52.442781901661576,52.442781901661576 0 0,0 0.1965495855661297,0.8810932525922031 l -30.746272134863855 6.581434761839641" fill="#d0ff1d" stroke="none" /><path d="M 120.53481517161879 95.60439243477599 l 51.747973779559764 -11.076982340937997 a73.92024497365311,73.92024497365311 0 0,0 0.25562572552964763,1.2465218213111793 l -51.930978801004414 10.184584863463405" fill="#3effb1" stroke="none" /><path d="M 120.6074358757038 95.95851677861258 l 30.969821306466898 -6.073730566694204 a52.5597850872164,52.5597850872164 0 0,0 0.166475050310932,0.8893163754925835 l -31.069782080687688 5.539736113739058" fill="#cfff1d" stroke="none" /><path d="M 120.94382443527127 98.46500227214037 l 21.41874953541487 -1.5698055516110694 a42.47619894512769,42.47619894512769 0 0,0 0.047167612179964145,0.7296620835447429 l -21.442597738599254 1.2008844038132913" fill="#ff950d" stroke="none" /><line stroke="#e1ed5e" stroke-width="0.3" x1="184.98032266829074" x2="189.97916517819016" y1="98.17113171792111" y2="98.06355123074" /><path d="M 185.9800911702706 98.14961562048488 a86.0,86.0 0 0,1 -9.607161424134198,41.387399972396054" fill="none" id="id52" stroke="none" /><text fill="#e1ed5e" style="font-size:6.75px; font-family:Arial;" text-anchor="middle"><textPath startOffset="21.466115282336823" xlink:href="#id52">April</textPath></text><path d="M 120.89721153311464 102.0752229133903 l 30.597975217330337 3.038569005904511 a51.748479458405825,51.748479458405825 0 0,0 -0.0956550892093051,0.8856473263914462 l -30.54113782661998 -3.5648126541807486" fill="#daff1b" stroke="none" /><path d="M 120.8583938346157 102.4346265915055 l 30.625646385011002 3.5746766343654133 a51.83356173944255,51.83356173944255 0 0,0 -0.11106819279215394,0.8853227775231532 l -30.559576682972 -4.101317166175962" fill="#d9ff1c" stroke="none" /><path d="M 120.81339534386255 102.79330883721812 l 30.680190160095044 4.117504370904898 a51.95525658921298,51.95525658921298 0 0,0 -0.1265876194315742,0.885353515469978 l -30.60476848964687 -4.645003358355286" fill="#d7ff1c" stroke="none" /><path d="M 120.32669344350535 105.2749913415812 l 59.95989500377729 15.560225172191087 a82.94602179537671,82.94602179537671 0 0,0 -0.3705393268771982,1.3789146793230762 l -59.68316760055831 -16.590030784689713" fill="#4bdeff" stroke="none" /><path d="M 119.9155931802556 106.66101706037122 l 25.314163210489426 8.46663574054426 a47.69252291954355,47.69252291954355 0 0,0 -0.26709895194230654,0.7763145805923409 l -25.164673427603887 -8.901123024225903" fill="#ffe715" stroke="none" /><path d="M 119.79798401119884 107.00284435728193 l 50.59661761606468 17.89678373160553 a74.66854369295041,74.66854369295041 0 0,0 -0.4390358862928842,1.2080382006678025 l -50.28105746876657 -18.765069729279464" fill="#3fffbb" stroke="none" /><path d="M 119.67450827220406 107.3425965602758 l 27.40234318239479 10.226652072357416 a50.248467045210944,50.248467045210944 0 0,0 -0.30940067764775886,0.8077475370106965 l -27.222248225153525 -10.696823176201256" fill="#f0ff19" stroke="none" /><path d="M 119.41010516605496 108.01547362559984 l 24.807438225326607 10.24432197109094 a47.83943225835398,47.83943225835398 0 0,0 -0.3208636711383887,0.7584269369749495 l -24.62742357299591 -10.669823433732054" fill="#ffe915" stroke="none" /><path d="M 118.81262510543309 109.33194174019688 l 26.05325650031869 12.9236334876606 a50.082511528318534,50.082511528318534 0 0,0 -0.38974050735249194,0.7689949956979795 l -25.82693732317993 -13.370182695061274" fill="#f3ff19" stroke="none" /><line stroke="#e1ed5e" stroke-width="0.3" x1="174.80103733775053" x2="179.2010983576182" y1="140.37084112569926" y2="142.7455964860345" /><path d="M 175.68104954172406 140.8457921977663 a86.0,86.0 0 0,1 -30.038265399797805,32.042727171017184" fill="none" id="id53" stroke="none" /><text fill="#e1ed5e" style="font-size:6.75px; font-family:Arial;" text-anchor="middle"><textPath startOffset="22.206326154141568" xlink:href="#id53">May</textPath></text><line stroke="#e1ed5e" stroke-width="0.3" x1="143.8653032363475" x2="146.44561519142675" y1="172.8068346515853" y2="177.08958963109032" /><path d="M 144.38136562736335 173.6633856474863 a86.0,86.0 0 0,1 -40.68145358897372,12.25698825130547" fill="none" id="id54" stroke="none" /><text fill="#e1ed5e" style="font-size:6.75px; font-family:Arial;" text-anchor="middle"><textPath startOffset="21.466115282336833" xlink:href="#id54">June</textPath></text><line stroke="#e1ed5e" stroke-width="0.3" x1="102.19456741930631" x2="102.32365962044197" y1="184.97166512339345" y2="189.96999836594603" /><path d="M 102.22038585953345 185.97133177190398 a86.0,86.0 0 0,1 -42.740103519485714,-10.115201625700543" fill="none" id="id55" stroke="none" /><text fill="#e1ed5e" style="font-size:6.75px; font-family:Arial;" text-anchor="middle"><textPath startOffset="22.20632615414155" xlink:href="#id55">July</textPath></text><path d="M 94.11515582081647 120.15858648285463 l -8.23731938964279 28.21701140199904 a50.394781223671814,50.394781223671814 0 0,0 -0.8306140447200774,-0.25025719804325364 l 8.721808408803115 -28.07103883485006" fill="#eeff19" stroke="none" /><path d="M 93.76903079525671 120.05430185196036 l -8.69975385986388 28.000056525821872 a50.320451610973464,50.320451610973464 0 0,0 -0.8249646378591603,-0.2641276255178851 l 9.180439842813982 -27.84615605364428" fill="#efff19" stroke="none" /><path d="M 93.42475214034765 119.94407469862007 l -8.864951325892672 26.889214705981054 a49.31284566261036,49.31284566261036 0 0,0 -0.8038704583479415,-0.27271650489568644 l 9.326491517177839 -26.732635214187244" fill="#feff18" stroke="none" /><path d="M 90.7491055286396 118.85261126421891 l -13.292373603525883 27.088834825848657 a51.17436276440354,51.17436276440354 0 0,0 -0.7874664454353262,-0.3948520232765201 l 13.75669395664397 -26.856014961662837" fill="#e3ff1b" stroke="none" /><path d="M 90.10565033884886 118.52300852407294 l -13.737188243821254 25.71710760699877 a50.15613082211244,50.15613082211244 0 0,0 -0.7580196079938407,-0.41333272906317614 l 14.177830663683736 -25.47683422617583" fill="#f2ff19" stroke="none" /><line stroke="#e1ed5e" stroke-width="0.3" x1="58.666819895761336" x2="56.23545636021788" y1="174.27360380694188" y2="178.64263932499728" /><path d="M 58.180547188652646 175.14741091055294 a86.0,86.0 0 0,1 -31.652253787137756,-30.449443065178592" fill="none" id="id56" stroke="none" /><text fill="#e1ed5e" style="font-size:6.75px; font-family:Arial;" text-anchor="middle"><textPath startOffset="22.20632615414155" xlink:href="#id56">August</textPath></text><path d="M 89.7882731507175 118.34994917583269 l -14.041759491232819 25.232321311208295 a49.876306002701995,49.876306002701995 0 0,0 -0.7466037282554555,-0.42394108206383063 l 14.474011986409483 -24.98687706334983" fill="#f6ff19" stroke="none" /><path d="M 89.4739219176387 118.17145234162733 l -14.073976625596734 24.296285236356287 a49.078217435304325,49.078217435304325 0 0,0 -0.7273675285010354,-0.42974155672769304 l 14.49011202512615 -24.050425107334846" fill="#fffc17" stroke="none" /><path d="M 88.54995079064634 117.60387380957326 l -8.216127958594814 12.631882810447257 a36.06881620993754,36.06881620993754 0 0,0 -0.5175450909786846,-0.34300066542943136 l 8.432347748313461 -12.488584123926508" fill="#ff2803" stroke="none" /><path d="M 87.95078237400918 117.19931262002967 l -33.380838824005615 47.64852791889758 a79.17785328999517,79.17785328999517 0 0,0 -1.1095180220397942,-0.7916116491948118 l 34.19608417389429 -47.06687200785855" fill="#46fff4" stroke="none" /><path d="M 87.36589467227662 116.77436683061367 l -17.56551956127086 23.32183095264512 a50.19683675402432,50.19683675402432 0 0,0 -0.6857157326300873,-0.5257775833618769 l 17.964364022394438 -23.016014027455874" fill="#f1ff19" stroke="none" /><path d="M 87.07902340077011 116.55440617244103 l -7.901458067221688 10.123379234902018 a33.84195649898052,33.84195649898052 0 0,0 -0.4561291532772164,-0.36237658573020864 l 8.074544713216262 -9.98586873516668" fill="#ff0000" stroke="none" /><path d="M 86.51685102203217 116.09983520530335 l -18.63541743770618 22.25200880145771 a50.02465639379241,50.02465639379241 0 0,0 -0.6554052379191703,-0.558550562467705 l 19.015688152202408 -21.92793384876705" fill="#f4ff19" stroke="none" /><path d="M 86.24171649860922 115.8653595955263 l -19.648809731571504 22.658017766819974 a50.9910235402033,50.9910235402033 0 0,0 -0.6581669935091574,-0.5807558480076709 l 20.03591907798725 -22.316438777040013" fill="#e5ff1a" stroke="none" /><path d="M 85.70375840098266 115.38237550388516 l -19.67130466112503 21.165800315626345 a49.89552439516832,49.89552439516832 0 0,0 -0.624084108709025,-0.590110478150393 l 20.03272460422487 -20.824055200730022" fill="#f6ff19" stroke="none" /><path d="M 85.18274418774928 114.88116024355367 l -20.512841326887546 20.6013098986671 a50.07216243837023,50.07216243837023 0 0,0 -0.6055378607126813,-0.613406655915002 l 20.86441981265576 -20.24516274877143" fill="#f3ff19" stroke="none" /><path d="M 84.67929136418377 114.36230785411682 l -20.80651568780754 19.504945285703656 a49.51936159287712,49.51936159287712 0 0,0 -0.5776164521873138,-0.6268885782145188 l 21.139178547990582 -19.143905452687793" fill="#fbff18" stroke="none" /><path d="M 84.43433777217949 114.09645910891817 l -21.784254593722128 19.728094417327213 a50.38964881625979,50.38964881625979 0 0,0 -0.5767002934436251,-0.647928893241754 l 22.120613736814093 -19.350191354344595" fill="#eeff19" stroke="none" /><path d="M 84.19399662182784 113.82643327865904 l -22.175948104625054 19.398595554081233 a50.4631665611462,50.4631665611462 0 0,0 -0.5662868186148338,-0.6587195049160124 l 22.506577432810666 -19.01399895000369" fill="#edff1a" stroke="none" /><path d="M 83.72743513129214 113.27417163493432 l -22.846046537060776 18.636419357332862 a50.483181117985175,50.483181117985175 0 0,0 -0.5434925234888909,-0.6780904888481513 l 23.163456972604525 -18.24040103490645" fill="#edff1a" stroke="none" /><path d="M 83.50135304334701 112.99209946851258 l -22.567281906072296 17.770934309217743 a49.7243506253957,49.7243506253957 0 0,0 -0.523747017933143,-0.677013622487099 l 22.869835741223508 -17.37984269261739" fill="#f8ff18" stroke="none" /><path d="M 83.28015986056508 112.70617746262583 l -24.49410611765115 18.614200645687703 a51.76442263688165,51.76442263688165 0 0,0 -0.5330225324409311,-0.7140707875019733 l 24.810889916787165 -18.18981697867642" fill="#daff1c" stroke="none" /><path d="M 82.6465618267979 111.8261652097733 l -51.504466055549926 35.09969140032967 a83.32734841195854,83.32734841195854 0 0,0 -0.7975494411981797,-1.1922282016620835 l 52.10101860215883 -34.20792628446176" fill="#4cdaff" stroke="none" /><path d="M 82.24976979558568 111.22182372390057 l -24.282666751035165 15.35167728464562 a49.72841624583111,49.72841624583111 0 0,0 -0.4511915099114908,-0.7274643764816435 l 24.543322900614612 -14.93141657679871" fill="#f8ff18" stroke="none" /><line stroke="#e1ed5e" stroke-width="0.3" x1="26.63291911575756" x2="22.317208475507996" y1="142.92168965132927" y2="145.44649492493687" /><path d="M 25.769776987707644 143.4266507060508 a86.0,86.0 0 0,1 -11.730757126820373,-40.83630448921669" fill="none" id="id57" stroke="none" /><text fill="#e1ed5e" style="font-size:6.75px; font-family:Arial;" text-anchor="middle"><textPath startOffset="21.46611528233685" xlink:href="#id57">September</textPath></text><path d="M 81.87401531095188 110.60418214915194 l -25.339007100469868 14.823991710331038 a50.35670300060321,50.35670300060321 0 0,0 -0.4312644054764802,-0.751945842333172 l 25.590423502098723 -14.385626022139558" fill="#efff19" stroke="none" /><path d="M 81.69416730710424 110.29060199501025 l -26.882067809425607 15.111722327552643 a51.83844550906562,51.83844550906562 0 0,0 -0.4305641806734825,-0.7815990537427701 l 27.138208399550606 -14.64675275541205" fill="#d9ff1c" stroke="none" /><path d="M 81.35079622478065 109.6543875284942 l -26.541115653542512 13.739901126415194 a50.8867144915326,50.8867144915326 0 0,0 -0.3959987891625103,-0.7813431794325063 l 26.773693112491287 -13.281003735280004" fill="#e7ff1a" stroke="none" /><path d="M 81.02952815118164 109.00673069616217 l -27.40404873700381 13.010793243609816 a51.33583076179129,51.33583076179129 0 0,0 -0.37212459559807104,-0.8015232731600784 l 27.623947949441707 -12.53714990317091" fill="#e0ff1b" stroke="none" /><path d="M 80.87730276802145 108.67885076344099 l -16.749919063604644 7.601963577064866 a39.39428277656748,39.39428277656748 0 0,0 -0.2749325405487121,-0.6199002988663744 l 16.878292688884635 -7.312514941705795" fill="#ff6109" stroke="none" /><path d="M 80.73074385275274 108.34839909993369 l -48.38917298216522 20.9645938111915 a73.73543643098213,73.73543643098213 0 0,0 -0.49455066060289926,-1.1689716737617866 l 48.742874623960425 -20.128547611763555" fill="#3dffaf" stroke="none" /><path d="M 80.58989483394504 108.01547362559985 l -48.59885648761521 20.06907479780364 a73.57962167174328,73.57962167174328 0 0,0 -0.47335307294204626,-1.1748235076391782 l 48.93711217481464 -19.229551922321658" fill="#3dffad" stroke="none" /><path d="M 80.0844068197444 106.66101706037122 l -28.265268641336558 9.453669540838764 a50.80431645172065,50.80431645172065 0 0,0 -0.270249325213326,-0.8317418991417781 l 28.423810217566135 -8.965728741719182" fill="#e8ff1a" stroke="none" /><path d="M 79.76711848015287 105.62410040840567 l -52.76234512309641 14.666261276930054 a75.76280017248857,75.76280017248857 0 0,0 -0.3384501917102315,-1.2594990699155049 l 53.00698339114842 -13.755871273839011" fill="#40ffc9" stroke="none" /><path d="M 79.67330655649465 105.27499134158121 l -29.311344670073687 7.606603099243548 a51.2822610958508,51.2822610958508 0 0,0 -0.21438106198011397,-0.8563457761461464 l 29.43793704634886 -7.1009294837000105" fill="#e1ff1b" stroke="none" /><path d="M 79.58551787078972 104.9243191809786 l -50.94026612124297 12.287655790497144 a73.40130911846376,73.40130911846376 0 0,0 -0.28570387939521946,-1.23080483486938 l 51.14423056656875 -11.40898229827919" fill="#3dffab" stroke="none" /><path d="M 79.29508885075956 103.50808413554451 l -29.541391264625027 5.005270744238186 a50.962418678617894,50.962418678617894 0 0,0 -0.139098877722084,-0.8661688443556788 l 29.6231718967084 -4.496022670189294" fill="#e6ff1a" stroke="none" /><path d="M 79.23777060512086 103.15116336523772 l -30.54301422735948 4.635630676584671 a51.89279511249146,51.89279511249146 0 0,0 -0.12643543368246754,-0.8842891286951623 l 30.618283712058545 -4.109196075909107" fill="#d8ff1c" stroke="none" /><path d="M 79.07016306316243 101.71520430193888 l -54.93399030967228 4.501851437551403 a76.11814544874449,76.11814544874449 0 0,0 -0.09577635004021379,-1.3067922016342488 l 55.003343218376834 -3.555586099420394" fill="#41ffce" stroke="none" /><path d="M 79.0235259727143 100.99374915477108 l -53.125161197342734 2.5167758875140143 a74.18474323630436,74.18474323630436 0 0,0 -0.0494489609661697,-1.276057961017983 l 53.1606122911601 -1.6019406794820348" fill="#3effb5" stroke="none" /><line stroke="#e1ed5e" stroke-width="0.3" x1="15.007084014347285" x2="10.007500721073583" y1="101.09737516637583" y2="101.16192664675087" /><path d="M 14.007167355692545 101.11028546245083 a86.0,86.0 0 0,1 10.666146001902534,-42.60595125391555" fill="none" id="id58" stroke="none" /><text fill="#e1ed5e" style="font-size:6.75px; font-family:Arial;" text-anchor="middle"><textPath startOffset="22.20632615414155" xlink:href="#id58">October</textPath></text><path d="M 79.21141760316559 97.0276538004421 l -29.51334501259897 -4.219810529158443 a50.813492494753056,50.813492494753056 0 0,0 0.13125392864793342,-0.8647993961944053 l 29.43633519051173 4.727209037744941" fill="#e8ff1a" stroke="none" /><path d="M 79.32604984820605 96.31383870115002 l -30.01447510951589 -5.351575085634671 a51.487834819759414,51.487834819759414 0 0,0 0.1630798124040437,-0.8711788788307813 l 29.917909573201985 5.8674320419280255" fill="#deff1b" stroke="none" /><path d="M 79.46518482838121 95.60439243477599 l -54.2444024173394 -11.61135874094727 a76.4732263837721,76.4732263837721 0 0,0 0.2866129600222255,-1.284829700625849 l 54.036495070315134 12.543366611123078" fill="#41ffd2" stroke="none" /><path d="M 79.54389044137918 95.25157060432595 l -54.48463819323251 -12.647393037664838 a76.93328481053678,76.93328481053678 0 0,0 0.31054376762506647,-1.287404402827449 l 54.25886162534663 13.583382672151684" fill="#42ffd8" stroke="none" /><path d="M 79.81627453868168 94.20196356495316 l -54.026453798724226 -15.51979827419423 a77.211403189543,77.211403189543 0 0,0 0.37794652017216007,-1.274247778740959 l 53.751301381440356 16.447475439681728" fill="#43ffdc" stroke="none" /><path d="M 80.14247586403 93.16781622104843 l -51.78093958637518 -17.815760569066658 a75.76008609472913,75.76008609472913 0 0,0 0.4348878560144373,-1.2294865315813326 l 51.46659864955094 18.704444727074602" fill="#40ffc9" stroke="none" /><path d="M 80.52162464483688 92.15188598940014 l -51.38481025546275 -20.70366968213376 a76.3989229434726,76.3989229434726 0 0,0 0.5019711672119791,-1.2155629973996265 l 51.020817401364575 21.5851072499867" fill="#41ffd1" stroke="none" /><path d="M 80.65960295795068 91.81776055985345 l -48.550492002109024 -20.53999975463185 a73.716618476218,73.716618476218 0 0,0 0.5044649006673911,-1.1643745431783243 l 48.189736391598956 21.372673442396774" fill="#3dffaf" stroke="none" /><path d="M 80.95270993114464 91.15688171328213 l -27.272266723153308 -12.661742416266856 a51.06819338162349,51.06819338162349 0 0,0 0.37703356852979125,-0.7941288508716727 l 27.050274960781767 13.12931368277906" fill="#e4ff1a" stroke="none" /><path d="M 81.26839172434947 90.50648371742162 l -49.00786009525556 -24.838065741179616 a75.94269615589776,75.94269615589776 0 0,0 0.6009980819760895,-1.1609370005303972 l 48.57305258011936 25.67797546397035" fill="#41ffcc" stroke="none" /><line stroke="#e1ed5e" stroke-width="0.3" x1="26.266209847984243" x2="21.928928074336255" y1="57.711370442889674" y2="55.22380399835377" /><path d="M 25.398753493254645 57.213857153982495 a86.0,86.0 0 0,1 29.58750427330803,-30.492523968695096" fill="none" id="id59" stroke="none" /><text fill="#e1ed5e" style="font-size:6.75px; font-family:Arial;" text-anchor="middle"><textPath startOffset="21.46611528233685" xlink:href="#id59">November</textPath></text><path d="M 82.15384107792192 88.93136811851018 l -24.760203214658688 -15.356894214075787 a50.13592049573016,50.13592049573016 0 0,0 0.46118458459911915,-0.7294832591182583 l 24.492191033813608 15.780825120908261" fill="#f2ff19" stroke="none" /><path d="M 82.54541684631803 88.32363383020206 l -46.40617313292147 -31.043735921285993 a76.83230646134211,76.83230646134211 0 0,0 0.7448179924652768,-1.0929284982297773 l 45.86493067478745 31.837942442786186" fill="#42ffd7" stroke="none" /><path d="M 82.95767976084542 87.72973835380427 l -51.12696071746375 -36.810784938587204 a84.0,84.0 0 0,0 0.8549495499454665,-1.1661502253139973 l 50.48574855500465 37.6853976075727" fill="#4dd2ff" stroke="none" /><path d="M 83.17141714833178 87.43820079747576 l -24.02102283518746 -17.930640277589507 a50.97527979540662,50.97527979540662 0 0,0 0.5309295307172998,-0.6986410275639207 l 23.708817364246052 18.341466081034458" fill="#e6ff1a" stroke="none" /><path d="M 83.6137871275137 86.86637796730984 l -22.80107134282155 -18.27515944577033 a50.22105930914837,50.22105930914837 0 0,0 0.5464565610314918,-0.6698911300735166 l 22.483116289713667 18.66493474545193" fill="#f1ff19" stroke="none" /><path d="M 84.31358615837235 86.03803664274999 l -41.52471776889826 -36.959791687438255 a76.59072213387307,76.59072213387307 0 0,0 0.8850107521711306,-0.9772509769896768 l 40.88236337611109 37.66909545169749" fill="#42ffd4" stroke="none" /><path d="M 84.5562425177563 85.77008943001954 l -21.099852636177534 -19.441448520399323 a49.691003848588934,49.691003848588934 0 0,0 0.5850114264506202,-0.6240494009954006 l 20.762073887756458 19.801767338272775" fill="#f9ff18" stroke="none" /><path d="M 85.05521093208273 85.24692304244772 l -26.821095773283314 -26.477034117435924 a58.68825432592364,58.68825432592364 0 0,0 0.7158966528084498,-0.7128223650700835 l 26.36136332030755 26.934792333156118" fill="#7aff26" stroke="none" /><path d="M 85.31137513191541 84.99185889309783 l -27.19133436859536 -27.78281743552033 a59.87484545821639,59.87484545821639 0 0,0 0.7427809775229385,-0.7145547118724619 l 26.709070147459993 28.246755234155106" fill="#6bff28" stroke="none" /><path d="M 85.57189188830299 84.74124197986013 l -31.245104480038794 -33.043936521960525 a66.4770084200346,66.4770084200346 0 0,0 0.8382184637394346,-0.7790327096975027 l 30.671678132504503 33.576873817732675" fill="#32ff4a" stroke="none" /><path d="M 85.83668400450813 84.49514656593479 l -19.877025997732186 -21.759761266220234 a50.47173854521344,50.47173854521344 0 0,0 0.6464925288376813,-0.5804273756098498 l 19.499522481298534 22.098687650599363" fill="#edff1a" stroke="none" /><path d="M 86.10567301691215 84.25364557470407 l -18.79024532520297 -21.294868257314533 a49.399731221926984,49.399731221926984 0 0,0 0.6424463305662315,-0.5571231270957661 l 18.420905195989967 21.615156377829983" fill="#fdff18" stroke="none" /><path d="M 86.65592168130627 83.78471172551755 l -25.08810523497413 -30.486246328137636 a60.48194827336946,60.48194827336946 0 0,0 0.8095842908496111,-0.6546275270534714 l 24.559617545560016 30.91357995245524" fill="#63ff29" stroke="none" /><path d="M 86.93701828274178 83.55741782278169 l -26.83833756174552 -33.78184096176992 a64.14520995249086,64.14520995249086 0 0,0 0.8704426942344523,-0.6793943295832211 l 26.25286231235164 34.238813680576364" fill="#36ff2f" stroke="none" /><path d="M 87.22198572758235 83.33499621200491 l -21.03504946462299 -27.43377582268742 a55.57000668019323,55.57000668019323 0 0,0 0.7640977697417981,-0.5755025987614705 l 20.5597055411228 27.791795010954743" fill="#a4ff21" stroke="none" /><path d="M 87.80319425747018 82.90503203632743 l -17.06933517805169 -23.92427527254022 a50.389337364713626,50.389337364713626 0 0,0 0.710414937652631,-0.4976910634534676 l 16.654989100815403 24.21455117875763" fill="#eeff19" stroke="none" /><path d="M 88.39885842347998 82.49532879139004 l -16.95126757744546 -25.577341984422326 a51.68461985213841,51.68461985213841 0 0,0 0.7458163845239038,-0.48509972272675883 l 16.508484167137272 25.86534063130862" fill="#dbff1b" stroke="none" /><path d="M 88.70189139769569 82.29822771554957 l -20.28018576542146 -31.77480788533264 a58.69515022956933,58.69515022956933 0 0,0 0.8563366609035252,-0.5362379384973136 l 19.73022995214569 32.11919016515289" fill="#7aff26" stroke="none" /><path d="M 89.00827224532344 82.1063720568725 l -20.921852630643762 -34.059053791102464 a60.97177832725968,60.97177832725968 0 0,0 0.8990083552518193,-0.5416424749660843 l 20.332482209174294 34.41414287552717" fill="#5dff2a" stroke="none" /><line stroke="#e1ed5e" stroke-width="0.3" x1="56.762969772571076" x2="54.21961505331055" y1="26.818313649435495" y2="22.513508569990535" /><path d="M 56.25429882871897 25.957352633546506 a86.0,86.0 0 0,1 42.265352541879196,-11.944610805530505" fill="none" id="id60" stroke="none" /><text fill="#e1ed5e" style="font-size:6.75px; font-family:Arial;" text-anchor="middle"><textPath startOffset="22.20632615414155" xlink:href="#id60">December</textPath></text><path d="M 89.3179101791058 81.91981866633112 l -14.458323571473429 -24.471720078760384 a49.42372607718116,49.42372607718116 0 0,0 0.7361858576514871,-0.4264463662608732 l 14.034940981356621 24.716970602411305" fill="#fdff18" stroke="none" /><path d="M 89.63071344664047 81.73862282372117 l -20.370683207555324 -35.874862506440685 a62.254945087814626,62.254945087814626 0 0,0 0.9364208328277727,-0.521117179627335 l 19.750138285655506 36.220195083628205" fill="#4dff2c" stroke="none" /><path d="M 89.94658935756843 81.56283822128135 l -14.343620299633178 -26.305067738970532 a50.961575927375335,50.961575927375335 0 0,0 0.7737786152936904,-0.4133257386394455 l 13.888696637811183 26.548072204111726" fill="#e6ff1a" stroke="none" /><path d="M 90.91171255644093 81.06846463323043 l -18.08402539094793 -37.67028369078723 a62.78614899323506,62.78614899323506 0 0,0 0.9783331418655078,-0.4593405281210828 l 17.432914037782812 37.975989201548316" fill="#46ff2c" stroke="none" /><path d="M 91.23893434514133 80.91482961587045 l -17.188277637060903 -37.44307145228473 a62.19976320210576,62.19976320210576 0 0,0 0.9768854348184192,-0.43830001907608457 l 16.54121008377571 37.733391801877346" fill="#4eff2c" stroke="none" /><path d="M 91.90106846888425 80.62456947434976 l -15.987686032393373 -38.24804528800245 a62.455024701759285,62.455024701759285 0 0,0 0.9954621044254752,-0.4060739869600487 l 15.326940058379517 38.51758016114608" fill="#4aff2c" stroke="none" /><path d="M 92.23578459929587 80.48803036053334 l -10.954838693763632 -27.53020993963995 a50.62973084803558,50.62973084803558 0 0,0 0.8125272213011049,-0.3152479384970604 l 10.479328307462852 27.71470058202756" fill="#ebff1a" stroke="none" /><path d="M 93.59665428221793 80.00007090966166 l -12.1840327577147 -38.055073383271385 a60.957968722737085,60.957968722737085 0 0,0 1.0020753549014638,-0.3113496906207631 l 11.527172030102507 38.25916320877467" fill="#5dff2a" stroke="none" /><path d="M 93.94186890950719 79.89281104454417 l -11.51721955658867 -38.22613053540929 a60.92346931348551,60.92346931348551 0 0,0 1.0067161820003063,-0.29388805950125974 l 10.857513156864943 38.41871692382925" fill="#5eff2a" stroke="none" /><path d="M 95.692805502759 79.44645832069477 l -7.482408688166604 -35.705375954658834 a57.48095820891058,57.48095820891058 0 0,0 0.9701515431073169,-0.1946032728354631 l 6.866690735592151 35.828883183571506" fill="#8aff24" stroke="none" /><path d="M 96.04723909329186 79.375362276772 l -7.67568252005984 -40.05002452490531 a61.778923068103076,61.778923068103076 0 0,0 1.0461374502869747,-0.19117493229764657 l 6.985149948669972 40.1762149385537" fill="#53ff2b" stroke="none" /><path d="M 96.40284397218896 79.31037775812273 l -6.545549320700797 -37.647781125937314 a59.21255866356254,59.21255866356254 0 0,0 1.0056852526228883,-0.16594668372653434 l 5.896534861939023 37.75487407260348" fill="#74ff27" stroke="none" /><path d="M 96.75951476605007 79.25152402106235 l -6.269127015002966 -40.140541273550625 a61.62714618655686,61.62714618655686 0 0,0 1.0495132916176684,-0.1546709775928502 l 5.5772447429566485 40.242506735304445" fill="#55ff2b" stroke="none" /><path d="M 98.55514903715128 79.0497635885617 l -2.658072205140658 -38.541858314974675 a59.633407696180825,59.633407696180825 0 0,0 1.0246665073238737,-0.061810681964625254 l 1.994243648977161 38.5819022663196" fill="#6eff28" stroke="none" /><path d="M 98.91598698831166 79.02799685794201 l -2.0526451316675636 -39.71177438526803 a60.764788153125984,60.764788153125984 0 0,0 1.0450362052105733,-0.0450014572884251 l 1.368768094067666 39.741223569080645" fill="#60ff29" stroke="none" /></svg>