<?xml version="1.0" encoding="utf-8" ?>
<svg baseProfile="full" height="200mm" version="1.1" viewBox="0,0,200,200" width="200mm" xmlns="http://www.w3.org/2000/svg" xmlns:ev="http://www.w3.org/2001/xml-events" xmlns:xlink="http://www.w3.org/1999/xlink"><defs /><rect fill="#1a1a1a" height="200" width="200" x="0" y="0" /><text alignment-baseline="middle" fill="#e1ed5e" style="dominant-baseline: central; font-size:9.0px; font-family:Arial;" text-anchor="middle" x="100.0" y="100.0">2018</text><line stroke="#e1ed5e" stroke-width="0.3" x1="100.0" x2="100.0" y1="15.0" y2="10.0" /><path d="M 100.0 14.0 a86.0,86.0 0 0,1 42.46469731375804,11.215312516191453" fill="none" id="id13" stroke="none" /><text fill="#e1ed5e" style="font-size:6.75px; font-family:Arial;" text-anchor="middle"><textPath startOffset="22.20632615414155" xlink:href="#id13">January</textPath></text><line stroke="#e1ed5e" stroke-width="0.3" x1="143.23703022742887" x2="145.7803849466894" y1="26.81831364943548" y2="22.513508569990506" /><path d="M 143.74570117128098 25.957352633546492 a86.0,86.0 0 0,1 28.547481713284135,27.462654790039103" fill="none" id="id14" stroke="none" /><text fill="#e1ed5e" style="font-size:6.75px; font-family:Arial;" text-anchor="middle"><textPath startOffset="19.985693538727396" xlink:href="#id14">February</textPath></text><line stroke="#e1ed5e" stroke-width="0.3" x1="172.23445277983987" x2="176.4835382374775" y1="55.19839476539836" y2="52.563006222186495" /><path d="M 173.08426987136738 54.67131705675599 a86.0,86.0 0 0,1 12.851231095245387,41.99856678651699" fill="none" id="id15" stroke="none" /><text fill="#e1ed5e" style="font-size:6.75px; font-family:Arial;" text-anchor="middle"><textPath startOffset="22.20632615414155" xlink:href="#id15">March</textPath></text><line stroke="#e1ed5e" stroke-width="0.3" x1="184.98032266829074" x2="189.97916517819016" y1="98.17113171792111" y2="98.06355123074" /><path d="M 185.9800911702706 98.14961562048488 a86.0,86.0 0 0,1 -9.607161424134198,41.387399972396054" fill="none" id="id16" stroke="none" /><text fill="#e1ed5e" style="font-size:6.75px; font-family:Arial;" text-anchor="middle"><textPath startOffset="21.466115282336823" xlink:href="#id16">April</textPath></text><path d="M 120.92983693683757 101.71520430193887 l 52.93139348198582 4.337738229012642 a74.10883531850655,74.10883531850655 0 0,0 -0.1151347938905721,1.2705028565548278 l -52.84888409181817 -5.248222474116039" fill="#3aff90" stroke="none" /><path d="M 120.89721153311464 102.0752229133903 l 25.991005321663877 2.581068277942008 a47.11884896173946,47.11884896173946 0 0,0 -0.08709739393401318,0.8064136964478161 l -25.94272562622881 -3.0280782962746158" fill="#ff3c05" stroke="none" /><line stroke="#e1ed5e" stroke-width="0.3" x1="174.80103733775053" x2="179.2010983576182" y1="140.37084112569926" y2="142.7455964860345" /><path d="M 175.68104954172406 140.8457921977663 a86.0,86.0 0 0,1 -30.038265399797805,32.042727171017184" fill="none" id="id17" stroke="none" /><text fill="#e1ed5e" style="font-size:6.75px; font-family:Arial;" text-anchor="middle"><textPath startOffset="22.206326154141568" xlink:href="#id17">May</textPath></text><path d="M 116.0416608686014 113.55231037782055 l 41.89717190948592 35.39555425845142 a75.84722668718989,75.84722668718989 0 0,0 -0.8511412903390202,0.9900696095259839 l -41.28168810957612 -36.11150096713894" fill="#3dffae" stroke="none" /><line stroke="#e1ed5e" stroke-width="0.3" x1="143.8653032363475" x2="146.44561519142675" y1="172.8068346515853" y2="177.08958963109032" /><path d="M 144.38136562736335 173.6633856474863 a86.0,86.0 0 0,1 -40.68145358897372,12.25698825130547" fill="none" id="id18" stroke="none" /><text fill="#e1ed5e" style="font-size:6.75px; font-family:Arial;" text-anchor="middle"><textPath startOffset="21.466115282336833" xlink:href="#id18">June</textPath></text><line stroke="#e1ed5e" stroke-width="0.3" x1="102.19456741930631" x2="102.32365962044197" y1="184.97166512339345" y2="189.96999836594603" /><path d="M 102.22038585953345 185.97133177190398 a86.0,86.0 0 0,1 -42.740103519485714,-10.115201625700543" fill="none" id="id19" stroke="none" /><text fill="#e1ed5e" style="font-size:6.75px; font-family:Arial;" text-anchor="middle"><textPath startOffset="22.20632615414155" xlink:href="#id19">July</textPath></text><path d="M 92.7421414339146 119.70592522655815 l -21.773575698256195 59.117775679674445 a84.0,84.0 0 0,0 -1.3525191169588682,-0.5114069995734671 l 22.787965035975347 -58.734220429994345" fill="#4dd2ff" stroke="none" /><line stroke="#e1ed5e" stroke-width="0.3" x1="58.666819895761336" x2="56.23545636021788" y1="174.27360380694188" y2="178.64263932499728" /><path d="M 58.180547188652646 175.14741091055294 a86.0,86.0 0 0,1 -31.652253787137756,-30.449443065178592" fill="none" id="id20" stroke="none" /><text fill="#e1ed5e" style="font-size:6.75px; font-family:Arial;" text-anchor="middle"><textPath startOffset="22.20632615414155" xlink:href="#id20">August</textPath></text><line stroke="#e1ed5e" stroke-width="0.3" x1="26.63291911575756" x2="22.317208475507996" y1="142.92168965132927" y2="145.44649492493687" /><path d="M 25.769776987707644 143.4266507060508 a86.0,86.0 0 0,1 -11.730757126820373,-40.83630448921669" fill="none" id="id21" stroke="none" /><text fill="#e1ed5e" style="font-size:6.75px; font-family:Arial;" text-anchor="middle"><textPath startOffset="21.46611528233685" xlink:href="#id21">September</textPath></text><path d="M 80.0844068197444 106.66101706037122 l -24.344497049635304 8.142318870750126 a46.67005830131041,46.67005830131041 0 0,0 -0.2482574837037997,-0.7640579705757413 l 24.481046784355353 -7.722062000196581" fill="#ff3204" stroke="none" /><path d="M 79.86692584326677 105.97154293290107 l -30.079694046485837 8.921746525581984 a52.37491920303429,52.37491920303429 0 0,0 -0.24892393233134305,-0.8665368641973832 l 30.228810615703285 -8.402652185880005" fill="#ffac0f" stroke="none" /><path d="M 79.67330655649465 105.27499134158121 l -24.35497968364784 6.32037410869092 a46.16172021672425,46.16172021672425 0 0,0 -0.19297508322406895,-0.7708395316919899 l 24.46016608116697 -5.900206737601538" fill="#ff2703" stroke="none" /><path d="M 79.50377843672027 104.57218783832718 l -23.096628226868084 5.152272693736063 a44.664322288220674,44.664322288220674 0 0,0 -0.1609318514599811,-0.7518200330489826 l 23.181894117052504 -4.753938841270917" fill="#ff0500" stroke="none" /><path d="M 79.4281124754447 104.21870165774334 l -26.899131864855658 5.516237246323191 a48.458917830836235,48.458917830836235 0 0,0 -0.16053762673418803,-0.8185779000776701 l 26.99009942456551 -5.052395619177566" fill="#ff5908" stroke="none" /><path d="M 79.35854240842038 103.8639653848113 l -28.17160517562546 5.273566885973834 a49.660946353394664,49.660946353394664 0 0,0 -0.15005541537740877,-0.8415904584769976 l 28.258207033342057 -4.787857676763623" fill="#ff730a" stroke="none" /><path d="M 79.29508885075956 103.50808413554451 l -23.521008237553414 3.985222407158211 a44.85623243820305,44.85623243820305 0 0,0 -0.12243240711047429,-0.7623867159477947 l 23.58612239902518 -3.579756461517203" fill="#ff0901" stroke="none" /><path d="M 79.23777060512086 103.15116336523772 l -23.34674388034383 3.543425063566288 a44.614112538807845,44.614112538807845 0 0,0 -0.10870111457620726,-0.7602553421708749 l 23.404279045936637 -3.141024249415012" fill="#ff0400" stroke="none" /><path d="M 79.18660465613746 102.79330883721812 l -25.09015858194588 3.367281528855411 a46.315107002771356,46.315107002771356 0 0,0 -0.09924332924740221,-0.7910669804844285 l 25.14440342044013 -2.934896794083574" fill="#ff2a04" stroke="none" /><path d="M 79.1416061653843 102.43462659150553 l -23.295136812351945 2.719047304686986 a44.45328585404016,44.45328585404016 0 0,0 -0.08217020226522316,-0.7607940209642485 l 23.33848931611822 -2.3176569618379554" fill="#ff0000" stroke="none" /><path d="M 79.10278846688536 102.07522291339032 l -25.49139943601847 2.531454310073009 a46.61678563228865,46.61678563228865 0 0,0 -0.07242340245325957,-0.7991862111269386 l 25.531197434748805 -2.0922867103975045" fill="#ff3104" stroke="none" /><path d="M 79.07016306316243 101.71520430193888 l -24.180057533549128 1.9815605266220313 a45.26111630668326,45.26111630668326 0 0,0 -0.056950211976968576,-0.7770403952716113 l 24.21058430419043 -1.5650469948536594" fill="#ff1202" stroke="none" /><path d="M 79.04373962182676 101.35467743843564 l -23.59862894019086 1.5254883088104505 a44.64788367776556,44.64788367776556 0 0,0 -0.042976031156031276,-0.7673659059557597 l 23.621391322234423 -1.1190506865192533" fill="#ff0400" stroke="none" /><path d="M 79.0235259727143 100.99374915477108 l -23.803940495873814 1.127698855261642 a44.8306375877621,44.8306375877621 0 0,0 -0.02988253853092642,-0.7711355394080581 l 23.819825167255942 -0.7177860688395873" fill="#ff0901" stroke="none" /><path d="M 79.0095281055655 100.63252640178507 l -25.171656010287528 0.7585221086611394 a46.183082060970456,46.183082060970456 0 0,0 -0.017105196061113565,-0.7948112473826157 l 25.18098326903365 -0.3251210454883948" fill="#ff2703" stroke="none" /><line stroke="#e1ed5e" stroke-width="0.3" x1="15.007084014347285" x2="10.007500721073583" y1="101.09737516637583" y2="101.16192664675087" /><path d="M 14.007167355692545 101.11028546245083 a86.0,86.0 0 0,1 10.666146001902534,-42.60595125391555" fill="none" id="id22" stroke="none" /><text fill="#e1ed5e" style="font-size:6.75px; font-family:Arial;" text-anchor="middle"><textPath startOffset="22.20632615414155" xlink:href="#id22">October</textPath></text><path d="M 79.00175016825051 100.2711162175752 l -28.10875560292455 0.36292260359185397 a49.11109841968364,49.11109841968364 0 0,0 -0.0036382032822374344,-0.8453903139867663 l 28.11083810349629 0.12097718859858772" fill="#ff6709" stroke="none" /><path d="M 79.00019446554 99.90962569577889 l -23.99721907742501 -0.10327390764668085 a44.99744130006221,44.99744130006221 0 0,0 0.010000130393733458,-0.774521119524988 l 23.991885939913566 0.5163312852321408" fill="#ff0c01" stroke="none" /><line stroke="#e1ed5e" stroke-width="0.3" x1="26.266209847984243" x2="21.928928074336255" y1="57.711370442889674" y2="55.22380399835377" /><path d="M 25.398753493254645 57.213857153982495 a86.0,86.0 0 0,1 29.58750427330803,-30.492523968695096" fill="none" id="id23" stroke="none" /><text fill="#e1ed5e" style="font-size:6.75px; font-family:Arial;" text-anchor="middle"><textPath startOffset="21.46611528233685" xlink:href="#id23">November</textPath></text><line stroke="#e1ed5e" stroke-width="0.3" x1="56.762969772571076" x2="54.21961505331055" y1="26.818313649435495" y2="22.513508569990535" /><path d="M 56.25429882871897 25.957352633546506 a86.0,86.0 0 0,1 42.265352541879196,-11.944610805530505" fill="none" id="id24" stroke="none" /><text fill="#e1ed5e" style="font-size:6.75px; font-family:Arial;" text-anchor="middle"><textPath startOffset="22.20632615414155" xlink:href="#id24">December</textPath></text></svg>